<?xml version="1.0" encoding="UTF-8" standalone="no"?>
<!-- Created with Inkscape (http://www.inkscape.org/) -->

<svg
   width="80mm"
   height="65mm"
   viewBox="0 0 80 65"
   version="1.1"
   id="svg1"
   xml:space="preserve"
   inkscape:version="1.4 (86a8ad7, 2024-10-11)"
   sodipodi:docname="Logo_CUBE_SD.svg"
   inkscape:export-filename="Logo_CUBE_SD.png"
   inkscape:export-xdpi="96"
   inkscape:export-ydpi="96"
   xmlns:inkscape="http://www.inkscape.org/namespaces/inkscape"
   xmlns:sodipodi="http://sodipodi.sourceforge.net/DTD/sodipodi-0.dtd"
   xmlns:xlink="http://www.w3.org/1999/xlink"
   xmlns="http://www.w3.org/2000/svg"
   xmlns:svg="http://www.w3.org/2000/svg"><sodipodi:namedview
     id="namedview1"
     pagecolor="#ffffff"
     bordercolor="#000000"
     borderopacity="0.25"
     inkscape:showpageshadow="2"
     inkscape:pageopacity="0.0"
     inkscape:pagecheckerboard="0"
     inkscape:deskcolor="#d1d1d1"
     inkscape:document-units="mm"
     inkscape:zoom="0.77796129"
     inkscape:cx="161.31908"
     inkscape:cy="537.94451"
     inkscape:window-width="2560"
     inkscape:window-height="1494"
     inkscape:window-x="-11"
     inkscape:window-y="-11"
     inkscape:window-maximized="1"
     inkscape:current-layer="g44"
     showguides="true" /><defs
     id="defs1"><linearGradient
       id="linearGradient42"
       inkscape:collect="always"><stop
         style="stop-color:#02508d;stop-opacity:1;"
         offset="0"
         id="stop43" /><stop
         style="stop-color:#027bdb;stop-opacity:0.64371771;"
         offset="1"
         id="stop44" /></linearGradient><linearGradient
       id="linearGradient40"
       inkscape:collect="always"><stop
         style="stop-color:#fee600;stop-opacity:1;"
         offset="0"
         id="stop41" /><stop
         style="stop-color:#fee600;stop-opacity:0;"
         offset="1"
         id="stop42" /></linearGradient><linearGradient
       id="linearGradient38"
       inkscape:collect="always"><stop
         style="stop-color:#1fe2df;stop-opacity:1;"
         offset="0"
         id="stop39" /><stop
         style="stop-color:#1fe2df;stop-opacity:0;"
         offset="1"
         id="stop40" /></linearGradient><linearGradient
       id="linearGradient36"
       inkscape:collect="always"><stop
         style="stop-color:#aadb05;stop-opacity:1;"
         offset="0"
         id="stop37" /><stop
         style="stop-color:#c9fb2f;stop-opacity:0.5628227;"
         offset="1"
         id="stop38" /></linearGradient><linearGradient
       id="linearGradient34"
       inkscape:collect="always"><stop
         style="stop-color:#fcfc52;stop-opacity:1;"
         offset="0"
         id="stop35" /><stop
         style="stop-color:#fcfc52;stop-opacity:0;"
         offset="1"
         id="stop36" /></linearGradient><linearGradient
       id="linearGradient33"
       inkscape:collect="always"><stop
         style="stop-color:#fcfc52;stop-opacity:0.82271945;"
         offset="0"
         id="stop33" /><stop
         style="stop-color:#eaf803;stop-opacity:0.55077451;"
         offset="1"
         id="stop34" /></linearGradient><linearGradient
       id="linearGradient9"
       inkscape:collect="always"><stop
         style="stop-color:#9de200;stop-opacity:1;"
         offset="0"
         id="stop9" /><stop
         style="stop-color:#9de200;stop-opacity:0;"
         offset="1"
         id="stop10" /></linearGradient><linearGradient
       id="linearGradient7"
       inkscape:collect="always"><stop
         style="stop-color:#b4bec7;stop-opacity:1;"
         offset="0"
         id="stop7" /><stop
         style="stop-color:#b4bec7;stop-opacity:0.68846816;"
         offset="1"
         id="stop8" /></linearGradient><inkscape:path-effect
       effect="bspline"
       id="path-effect6"
       is_visible="true"
       lpeversion="1.3"
       weight="33.3333"
       steps="2"
       helper_size="0"
       apply_no_weight="true"
       apply_with_weight="true"
       only_selected="false"
       uniform="false" /><linearGradient
       id="linearGradient5"
       inkscape:collect="always"><stop
         style="stop-color:#b4bec7;stop-opacity:1;"
         offset="0"
         id="stop5" /><stop
         style="stop-color:#b4bec7;stop-opacity:0;"
         offset="1"
         id="stop6" /></linearGradient><inkscape:path-effect
       effect="bspline"
       id="path-effect2"
       is_visible="true"
       lpeversion="1.3"
       weight="33.3333"
       steps="2"
       helper_size="0"
       apply_no_weight="true"
       apply_with_weight="true"
       only_selected="false"
       uniform="false" /><inkscape:path-effect
       effect="bspline"
       id="path-effect29"
       is_visible="true"
       lpeversion="1.3"
       weight="20"
       steps="2"
       helper_size="0"
       apply_no_weight="true"
       apply_with_weight="true"
       only_selected="false"
       uniform="false" /><inkscape:path-effect
       effect="bspline"
       id="path-effect22"
       is_visible="true"
       lpeversion="1.3"
       weight="33.3333"
       steps="2"
       helper_size="0"
       apply_no_weight="true"
       apply_with_weight="true"
       only_selected="false"
       uniform="false" /><inkscape:path-effect
       effect="bspline"
       id="path-effect21"
       is_visible="true"
       lpeversion="1.3"
       weight="33.3333"
       steps="2"
       helper_size="0"
       apply_no_weight="true"
       apply_with_weight="true"
       only_selected="false"
       uniform="false" /><linearGradient
       id="linearGradient17"
       inkscape:collect="always"><stop
         style="stop-color:#b71603;stop-opacity:0.46488294;"
         offset="0"
         id="stop16" /><stop
         style="stop-color:#fd978c;stop-opacity:0.6232143;"
         offset="1"
         id="stop17" /></linearGradient><linearGradient
       id="linearGradient15"
       inkscape:collect="always"><stop
         style="stop-color:#b71603;stop-opacity:1;"
         offset="0"
         id="stop14" /><stop
         style="stop-color:#fd978c;stop-opacity:0.76339287;"
         offset="1"
         id="stop15" /></linearGradient><linearGradient
       id="linearGradient12"
       inkscape:collect="always"><stop
         style="stop-color:#b71603;stop-opacity:0.46488294;"
         offset="0"
         id="stop12" /><stop
         style="stop-color:#fd978c;stop-opacity:1;"
         offset="1"
         id="stop13" /></linearGradient><inkscape:path-effect
       effect="bspline"
       id="path-effect1"
       is_visible="true"
       lpeversion="1.3"
       weight="25"
       steps="2"
       helper_size="0"
       apply_no_weight="true"
       apply_with_weight="true"
       only_selected="false"
       uniform="false" /><inkscape:path-effect
       effect="bspline"
       id="path-effect7-6"
       is_visible="true"
       lpeversion="1.3"
       weight="33.3333"
       steps="2"
       helper_size="0"
       apply_no_weight="true"
       apply_with_weight="true"
       only_selected="false"
       uniform="false" /><inkscape:path-effect
       effect="bspline"
       id="path-effect9-3"
       is_visible="true"
       lpeversion="1.3"
       weight="33.3333"
       steps="2"
       helper_size="0"
       apply_no_weight="true"
       apply_with_weight="true"
       only_selected="false"
       uniform="false" /><inkscape:path-effect
       effect="bspline"
       id="path-effect10-8"
       is_visible="true"
       lpeversion="1.3"
       weight="33.3333"
       steps="2"
       helper_size="0"
       apply_no_weight="true"
       apply_with_weight="true"
       only_selected="false"
       uniform="false" /><inkscape:path-effect
       effect="bspline"
       id="path-effect13-3"
       is_visible="true"
       lpeversion="1.3"
       weight="33.3333"
       steps="2"
       helper_size="0"
       apply_no_weight="true"
       apply_with_weight="true"
       only_selected="false"
       uniform="false" /><inkscape:path-effect
       effect="bspline"
       id="path-effect1-7"
       is_visible="true"
       lpeversion="1.3"
       weight="25"
       steps="2"
       helper_size="0"
       apply_no_weight="true"
       apply_with_weight="true"
       only_selected="false"
       uniform="false" /><inkscape:path-effect
       effect="bspline"
       id="path-effect1-7-3"
       is_visible="true"
       lpeversion="1.3"
       weight="25"
       steps="2"
       helper_size="0"
       apply_no_weight="true"
       apply_with_weight="true"
       only_selected="false"
       uniform="false" /><inkscape:path-effect
       effect="bspline"
       id="path-effect1-7-3-1"
       is_visible="true"
       lpeversion="1.3"
       weight="25"
       steps="2"
       helper_size="0"
       apply_no_weight="true"
       apply_with_weight="true"
       only_selected="false"
       uniform="false" /><linearGradient
       inkscape:collect="always"
       xlink:href="#linearGradient12"
       id="linearGradient13"
       x1="65.829117"
       y1="58.410194"
       x2="82.7966"
       y2="58.410194"
       gradientUnits="userSpaceOnUse" /><linearGradient
       inkscape:collect="always"
       xlink:href="#linearGradient15"
       id="linearGradient14"
       x1="66.657974"
       y1="62.258461"
       x2="73.501556"
       y2="57.877357"
       gradientUnits="userSpaceOnUse"
       gradientTransform="translate(0.02372986,-0.05920418)" /><linearGradient
       inkscape:collect="always"
       xlink:href="#linearGradient17"
       id="linearGradient16"
       gradientUnits="userSpaceOnUse"
       x1="66.125137"
       y1="61.074379"
       x2="74.093597"
       y2="57.758949" /><linearGradient
       inkscape:collect="always"
       xlink:href="#linearGradient12"
       id="linearGradient18"
       gradientUnits="userSpaceOnUse"
       x1="65.829117"
       y1="58.410194"
       x2="82.7966"
       y2="58.410194" /><linearGradient
       inkscape:collect="always"
       xlink:href="#linearGradient12"
       id="linearGradient19"
       gradientUnits="userSpaceOnUse"
       x1="65.829117"
       y1="58.410194"
       x2="82.7966"
       y2="58.410194" /><linearGradient
       inkscape:collect="always"
       xlink:href="#linearGradient5"
       id="linearGradient6"
       x1="25.535963"
       y1="38.850231"
       x2="26.918257"
       y2="38.807716"
       gradientUnits="userSpaceOnUse" /><linearGradient
       inkscape:collect="always"
       xlink:href="#linearGradient7"
       id="linearGradient8"
       x1="106.63736"
       y1="180.78903"
       x2="109.78495"
       y2="173.93771"
       gradientUnits="userSpaceOnUse" /><radialGradient
       inkscape:collect="always"
       xlink:href="#linearGradient9"
       id="radialGradient10"
       cx="46.186935"
       cy="45.371227"
       fx="46.186935"
       fy="45.371227"
       r="11.663565"
       gradientTransform="matrix(1.1156635,-1.9189378,2.1437417,1.2463636,-102.60633,77.452034)"
       gradientUnits="userSpaceOnUse" /><radialGradient
       inkscape:collect="always"
       xlink:href="#linearGradient33"
       id="radialGradient34"
       cx="127.93846"
       cy="191.60709"
       fx="127.93846"
       fy="191.60709"
       r="12.86599"
       gradientTransform="matrix(1,0,0,1.1168223,-83.689071,-166.31475)"
       gradientUnits="userSpaceOnUse" /><radialGradient
       inkscape:collect="always"
       xlink:href="#linearGradient34"
       id="radialGradient36"
       cx="132.8083"
       cy="178.26012"
       fx="132.8083"
       fy="178.26012"
       r="8.23664"
       gradientTransform="matrix(1.2505786,-0.75818481,0.24955421,0.41162412,-161.21307,60.083266)"
       gradientUnits="userSpaceOnUse" /><radialGradient
       inkscape:collect="always"
       xlink:href="#linearGradient36"
       id="radialGradient38"
       cx="49.959793"
       cy="32.086288"
       fx="49.959793"
       fy="32.086288"
       r="7.0969858"
       gradientTransform="matrix(-0.43090276,-1.4011389,0.73389125,-0.22569918,47.93976,109.32874)"
       gradientUnits="userSpaceOnUse" /><radialGradient
       inkscape:collect="always"
       xlink:href="#linearGradient38"
       id="radialGradient40"
       cx="8.247386"
       cy="40.939331"
       fx="8.247386"
       fy="40.939331"
       r="5.3565507"
       gradientTransform="matrix(1.240719,-2.1448974,2.2984901,1.329565,-96.083949,4.1976288)"
       gradientUnits="userSpaceOnUse" /><radialGradient
       inkscape:collect="always"
       xlink:href="#linearGradient40"
       id="radialGradient42"
       cx="16.430372"
       cy="59.406391"
       fx="16.430372"
       fy="59.406391"
       r="6.6963105"
       gradientTransform="matrix(-0.93424128,0.24765841,-0.16389498,-0.49084422,41.05866,84.446232)"
       gradientUnits="userSpaceOnUse" /><radialGradient
       inkscape:collect="always"
       xlink:href="#linearGradient40"
       id="radialGradient42-4"
       cx="19.822165"
       cy="61.699532"
       fx="19.822165"
       fy="61.699532"
       r="6.6963105"
       gradientTransform="matrix(-0.16642026,0.59000064,-0.226467,-0.05945807,47.429449,65.504183)"
       gradientUnits="userSpaceOnUse" /><linearGradient
       inkscape:collect="always"
       xlink:href="#linearGradient42"
       id="linearGradient44"
       x1="31.629145"
       y1="18.237772"
       x2="32.819489"
       y2="23.169199"
       gradientUnits="userSpaceOnUse" /></defs><g
     inkscape:label="Calque 1"
     inkscape:groupmode="layer"
     id="layer1"><g
       id="g1-2-8"
       transform="matrix(0.90539294,0,0,0.90539294,-54.888676,95.989929)" /><text
       xml:space="preserve"
       style="font-size:5.62721px;font-family:'Trebuchet MS';-inkscape-font-specification:'Trebuchet MS';text-align:center;writing-mode:lr-tb;direction:ltr;text-anchor:middle;fill:#ffffff;fill-opacity:1;stroke:none;stroke-width:0.478535;stroke-dasharray:none;stroke-opacity:1"
       x="82.495789"
       y="12.59304"
       id="text9-5-8"
       transform="rotate(47.667041)"><tspan
         sodipodi:role="line"
         id="tspan9-0-4"
         style="font-style:normal;font-variant:normal;font-weight:normal;font-stretch:normal;font-size:5.62721px;font-family:'Informal Roman';-inkscape-font-specification:'Informal Roman, ';fill:#000000;fill-opacity:1;stroke-width:0.478534"
         x="82.495789"
         y="12.59304" /></text><g
       id="g44"
       transform="translate(0,-8.1623599)"><g
         id="g45"
         transform="translate(0,-6.4999068)"><path
           style="fill:#fab300;fill-opacity:1;stroke:none;stroke-width:0.847;stroke-dasharray:none;stroke-opacity:1"
           d="M 29.758603,72.355918 27.055349,77.64424 37.325792,72.100844 37.66589,70.995523 35.710323,70.400351 31.714167,72.01582 Z"
           id="path32"
           sodipodi:nodetypes="ccccccc" /><path
           style="fill:#fab300;fill-opacity:1;stroke:none;stroke-width:0.847;stroke-dasharray:none;stroke-opacity:1"
           d="m 7.0342105,58.077327 11.3028335,11.242712 0.661336,-5.290688 2.284616,-3.607287 2.164372,-0.961943 -0.06012,-0.781579 z"
           id="path30"
           sodipodi:nodetypes="ccccccc" /><path
           style="fill:#fab300;fill-opacity:1;stroke:none;stroke-width:0.847;stroke-dasharray:none;stroke-opacity:1"
           d="m 24.146981,74.141432 3.486007,3.48601 1.275368,-2.550739 -0.170048,-2.295663 0.722709,-0.935269 z"
           id="path31"
           sodipodi:nodetypes="cccccc" /><path
           style="fill:#000000;fill-opacity:1;stroke:none;stroke-width:0.84735;stroke-dasharray:none;stroke-opacity:1"
           d="m 61.124107,68.180069 -0.270266,1.795347 c 0,0 1.588611,0.177864 2.355186,0.212352 0.766574,0.03449 1.499704,0.100522 2.239358,0 0.860117,-0.116893 1.704403,-0.370802 2.509624,-0.694971 0.590272,-0.237634 1.679517,-0.907326 1.679517,-0.907326 l 0.46033,-2.53923 -1.966464,2.277052 -2.255061,0.71082 -1.045546,-0.04667 -0.868709,-0.03878 -0.638372,-0.0285 -0.577992,-0.0258"
           id="path23"
           sodipodi:nodetypes="cczsscccccccc" /><path
           style="fill:#000000;fill-opacity:1;stroke:none;stroke-width:0.84735;stroke-dasharray:none;stroke-opacity:1"
           d="m 61.722558,62.253494 c 0,0 0.617753,1.85326 0.617753,2.162137 0,0.308876 1.081069,0.926632 1.081069,0.926632 l 2.625453,0.386096 0.308877,-0.617754 z"
           id="path24" /><path
           d="m 26.203685,77.650871 c -0.74138,-0.598318 -2.06517,-1.693311 -2.94175,-2.43332 -0.87658,-0.740008 -1.93463,-1.528845 -2.351216,-1.75297 -0.441214,-0.237282 -1.085932,-0.779424 -1.544094,-1.298318 -0.432639,-0.489985 -2.271004,-2.296086 -4.085256,-4.013556 -1.814253,-1.717471 -4.539644,-4.413289 -6.0564254,-5.990706 l -2.757783,-2.868032 c 0,0 -2.533303,-13.95249 -2.762893,-15.366376 -0.119095,-0.733421 -0.780288,-4.681263 -1.469319,-8.772982 -1.06748,-6.33909 -1.22579,-7.481014 -1.070295,-7.720225 0.136318,-0.209708 26.4665714,-8.359932 28.6080214,-8.907902 l 3.89354,-0.996308 1.5808,0.647448 c 2.26259,0.926689 8.92182,3.773714 10.49415,4.486572 0.73342,0.332515 3.03896,1.3624 5.12342,2.288633 2.08446,0.926233 5.05324,2.263732 6.59728,2.97222 1.54405,0.708488 2.78184,3.949318 2.32176,6.358473 -0.46009,2.409155 -0.96113,5.075102 -1.11342,5.924326 -0.27726,1.54609 -0.58837,3.225561 -2.05415,11.08905 -1.2705,6.815877 -1.3428,7.247865 -1.25781,7.51565 0.19821,0.624488 -0.48831,3.310131 -0.91329,3.572783 -0.0778,0.04805 -0.1458,0.383677 -0.15123,0.745831 -0.005,0.362155 -0.0574,0.779861 -0.11557,0.928236 -0.0792,0.202063 0.003,0.366674 0.32569,0.655855 0.42715,0.382276 0.43134,0.399682 0.42543,1.765559 -0.007,1.532417 -0.20527,2.316329 -0.72929,2.878231 -0.54808,0.587703 -0.74167,0.639269 -5.47836,1.459265 -2.34536,0.406018 -2.90099,0.382169 -3.397,-0.145806 l -0.32107,-0.341763 -0.85878,0.433513 c -1.20456,0.608059 -2.05574,0.880114 -3.65389,1.167868 -1.29765,0.233648 -1.49436,0.316622 -3.08601,1.301717 -6.08465,3.765888 -9.0689,5.50495 -9.44655,5.50495 -0.29777,0 -0.7678,-0.291407 -1.75469,-1.08785 z m 1.92331,-1.052758 c 0.0348,-0.0965 -0.108608,-1.091658 0.175725,-2.189606 l 0.533275,-2.059238 -0.91694,0.603548 c -0.50431,0.331952 -1.35633,0.737457 -1.89336,0.901124 l -0.97644,0.297576 1.04388,0.925017 c 0.57414,0.508759 1.20303,1.091225 1.39754,1.29437 0.40597,0.423989 0.54714,0.474397 0.63632,0.227209 z m 2.94579,-1.703701 c 0.69482,-0.438232 2.21073,-1.394638 3.36868,-2.125348 1.15795,-0.730709 2.12936,-1.400568 2.1587,-1.488574 0.0293,-0.08801 -0.24085,0.04239 -0.6004,0.289773 -1.35033,0.929052 -2.1228,1.180408 -3.66367,1.192141 -0.77202,0.0059 -1.56159,-0.03955 -1.7546,-0.100957 -0.32412,-0.10312 -0.36919,-0.06016 -0.59026,0.562578 -0.16389,0.461656 -0.37634,0.755148 -0.67386,0.930898 -0.31111,0.183776 -0.3948,0.304533 -0.29466,0.425184 0.0769,0.09268 0.15907,0.463076 0.18257,0.823102 0.0404,0.6187 0.0581,0.644541 0.32346,0.47129 0.1544,-0.100816 0.84922,-0.541855 1.54404,-0.980087 z m -5.64184,-3.243092 c 1.01816,-0.265196 2.13902,-0.830239 2.57052,-1.295838 0.39019,-0.421016 0.4187,-0.863619 0.11337,-1.75972 -0.34211,-1.004023 -0.48535,-1.05773 -1.44993,-0.543618 -1.38242,0.736823 -2.532,0.589764 -3.19256,-0.408403 -1.027,-1.551907 0.0714,-4.269995 1.92752,-4.769796 0.4777,-0.128631 0.69794,-0.111961 1.27837,0.09676 0.68708,0.24707 0.70537,0.246545 0.90496,-0.02596 0.3131,-0.427481 0.78693,-2.123958 0.6839,-2.448583 -0.14534,-0.457924 -0.88303,-0.748483 -2.0806,-0.819495 -2.52496,-0.149722 -4.71809,1.094612 -5.837103,3.311855 -0.614821,1.21822 -0.856942,2.201099 -0.856942,3.478716 0,3.764396 2.617255,6.049158 5.938495,5.184082 z m 8.90178,-1.55642 c 0.90226,-0.439031 1.6286,-1.26394 2.00964,-2.282369 0.4347,-1.161836 0.64467,-5.801956 0.33052,-7.30403 -0.0686,-0.328188 -0.0875,-0.331815 -1.22068,-0.234842 -0.63303,0.05417 -1.20122,0.14705 -1.26265,0.206395 -0.0614,0.05935 -0.12459,1.428334 -0.14036,3.042196 -0.0241,2.468999 -0.0668,3.003938 -0.26914,3.373481 -0.37608,0.686918 -1.12814,0.836754 -1.59766,0.318309 -0.23644,-0.261075 -0.2674,-0.525185 -0.2674,-2.280975 0,-1.092142 0.0316,-2.522619 0.0702,-3.178838 l 0.0702,-1.193126 h -1.22353 c -0.92065,0 -1.27756,0.05412 -1.44183,0.218631 -0.46576,0.46644 -0.68815,5.773854 -0.30257,7.220858 0.36837,1.38237 1.06628,2.205749 2.09254,2.468708 0.78886,0.202131 2.34855,0.01691 3.15275,-0.374398 z m 6.74718,-0.421286 c 2.73647,-0.561343 4.52094,-2.070078 4.52094,-3.822373 0,-0.9476 -0.42826,-1.555122 -1.35837,-1.926972 l -0.71637,-0.286394 0.54817,-0.460211 c 0.76653,-0.643547 1.15976,-1.457055 1.16298,-2.406011 0.003,-0.986315 -0.29832,-1.451159 -1.15675,-1.782427 -1.32139,-0.509927 -4.88653,-0.12348 -5.91915,0.641613 l -0.35092,0.260005 V 64.671 c 0,2.629086 0.0442,4.824302 0.0982,4.878259 0.14439,0.144309 0.9473,0.315467 1.55709,0.331927 0.29276,0.0079 1.01917,-0.0855 1.61423,-0.207572 z m -0.53235,-3.278902 c 0,-0.458658 0.0579,-0.869724 0.12873,-0.91348 0.0708,-0.04376 0.41318,-0.118547 0.76085,-0.166201 0.55851,-0.07655 0.6758,-0.04297 1.00705,0.28828 0.34356,0.343552 0.35794,0.400809 0.17186,0.684296 -0.2727,0.415461 -1.20543,0.935864 -1.68248,0.938718 -0.37804,0.0023 -0.38601,-0.0149 -0.38601,-0.831613 z m -0.0832,-3.449091 c -0.13256,-0.528199 0.0629,-1.574603 0.31195,-1.670182 0.75292,-0.288922 1.73638,0.07306 1.73638,0.639105 0,0.296383 -0.68061,0.909614 -1.29389,1.165796 -0.66645,0.278391 -0.65001,0.281326 -0.75444,-0.134719 z m 11.42883,5.238998 c 0.7746,-0.114758 1.2068,-0.246041 1.28105,-0.389127 0.0616,-0.118766 0.15649,-0.642357 0.21078,-1.163534 0.12302,-1.18086 0.0849,-1.201884 -1.73957,-0.959799 -0.7383,0.09796 -1.6108,0.212213 -1.93891,0.253893 l -0.59657,0.07578 v -0.64355 c 0,-0.726462 -0.19546,-0.633203 1.96515,-0.937602 1.25023,-0.17614 1.40368,-0.327009 1.40368,-1.380084 v -0.765552 l -0.94748,0.0839 c -0.52112,0.04615 -1.24752,0.127058 -1.61423,0.179806 l -0.66675,0.09591 v -0.58055 c 0,-0.319303 0.0474,-0.582624 0.10528,-0.585159 0.45892,-0.02009 3.86324,-0.548301 3.92375,-0.608805 0.11583,-0.115829 0.3093,-1.211328 0.31626,-1.790742 0.0111,-0.921514 -0.0821,-0.932925 -3.40933,-0.417745 -1.63421,0.253035 -3.1292,0.535925 -3.32221,0.628644 l -0.35092,0.168582 -0.037,4.527111 c -0.0223,2.723602 0.017,4.628175 0.0987,4.780798 0.13017,0.243223 0.21855,0.240226 2.14256,-0.07265 1.10374,-0.179486 2.53284,-0.404272 3.17578,-0.499524 z M 18.227817,64.912567 c 0.240676,-0.962081 0.99802,-2.531887 1.604761,-3.326315 0.276957,-0.36263 0.939901,-1.000742 1.473207,-1.418027 l 0.96965,-0.758698 -1.707344,-0.08876 C 9.6805736,59.300697 5.0682466,56.217619 15.118157,65.491944 l 2.760014,2.544521 0.08704,-1.211027 c 0.04787,-0.666066 0.166044,-1.526855 0.26261,-1.912866 z M 34.677645,57.89801 c 1.12026,-1.560047 -1.88731,1.296289 -1.78793,1.457086 0.046,0.0745 0.21712,0.125401 0.38016,0.113119 0.20492,-0.01544 0.63963,-0.500237 1.40797,-1.570205 z M 2.3906856,29.691326 c -0.1680049,0.187447 0.186764,-0.187491 0.311456,0.137404 0.04769,0.124281 0.02398,0.180385 -0.05548,0.131277 m 1.300013,-1.350402 c -0.222631,-0.174599 -0.227595,-0.169634 -0.053,0.053 m -0.262827,-0.228459 c 0,-0.02915 -0.11054,-0.139688 -0.245643,-0.245644 -0.222631,-0.174599 -0.227596,-0.169634 -0.053,0.053 0.183372,0.233817 0.29864,0.308174 0.29864,0.192647 z m -0.328341,-0.883605 c -0.09332,-0.09332 -0.641128,0.142407 -0.575963,0.247846 0.04131,0.06684 0.195643,0.04626 0.342957,-0.04574 0.147314,-0.092 0.252167,-0.182949 0.233006,-0.20211 z"
           style="fill:#000000"
           id="path1-2"
           sodipodi:nodetypes="cscssscsssscssssssssccsccssscssssccsscsscssssscccssscsssssssssssssssscscscccssccsssscccsscscsscscsccssssscsccsscccssscssscsscssscsscccsccssscsscsssccscccscccssssssssss" /><path
           style="fill:#ffffff;fill-opacity:1;stroke:#000000;stroke-width:0.6;stroke-dasharray:none;stroke-opacity:1"
           d="m 88.138058,136.97171 c -4.99008,-0.55613 -3.426923,-2.60026 -2.750559,-3.35177 0.676365,-0.75152 1.818675,-1.71347 2.329708,-2.29965 0.511033,-0.58619 1.412854,-1.96898 1.848735,-2.63031 0.43588,-0.66134 1.277577,-1.92388 1.548125,-2.38983 0.270548,-0.46594 0.511033,-1.06715 0.676366,-1.30764 0.165334,-0.24048 0.586184,-0.60121 0.856732,-0.85673 0.270548,-0.25552 0.931881,-0.91685 1.097215,-1.35273 0.165335,-0.43588 0.165335,-1.51807 0.300607,-2.08922 0.135272,-0.57115 0.676369,-1.77359 0.961946,-2.35977 0.285577,-0.58619 0.886788,-1.72849 1.082183,-2.13431 0.195395,-0.40582 0.375763,-0.8868 0.420853,-1.14231 0.04509,-0.25552 0.04509,-0.79661 -0.736488,-1.27758 -0.781578,-0.48097 -3.907893,-1.86376 -5.305718,-2.81068 -1.397825,-0.94691 -3.862805,-3.35177 -5.245598,-5.38087 -1.382794,-2.0291 -4.448988,-7.74064 -5.440992,-9.965134 -0.992004,-2.224494 -1.893825,-5.410931 -1.863765,-7.364878 0.03006,-1.953947 1.052125,-6.583299 1.953947,-8.732641 0.901821,-2.149342 3.487044,-6.117358 4.794686,-7.635425 1.307642,-1.518067 3.952987,-3.622318 5.410932,-4.704504 1.457946,-1.082186 4.644383,-3.306679 5.831781,-4.013107 1.187399,-0.706427 2.750557,-1.307642 3.366801,-1.533098 0.616245,-0.225455 1.518065,-0.526062 1.908855,-0.556122 0.39079,-0.03006 1.05212,0.150302 1.29261,0.240486 0.24049,0.09018 0.5411,0.270547 0.76655,0.225455 0.22546,-0.04509 0.82667,-0.405819 2.58522,-1.427885 1.75856,-1.022065 8.19155,-4.749594 8.71761,-4.809716 0.52607,-0.06012 -3.80268,3.426924 -4.67444,4.313715 -0.87176,0.88679 -0.0301,0.946911 0.61624,0.946911 0.64631,10e-7 2.38983,-0.06012 3.48705,0.04509 1.09722,0.105213 3.74257,0.586184 5.2907,0.992003 1.54812,0.405819 5.09529,1.548129 6.68851,2.269585 1.59321,0.721457 4.41892,2.464981 5.54619,3.096255 1.12728,0.631275 2.81069,1.412856 3.96803,2.284615 1.15733,0.871759 4.10328,3.577224 5.23056,5.200505 1.12728,1.623281 2.69043,5.410931 3.20146,7.109363 0.51104,1.698432 0.99201,4.704505 1.06716,5.621359 0.0752,0.916854 -0.10521,1.578188 -0.3006,1.488004 -0.1954,-0.09018 -0.79661,-1.112246 -0.99201,-1.097215 -0.19539,0.01503 -0.37576,1.097215 -0.57115,1.788613 -0.1954,0.691397 -0.79661,2.374796 -0.94692,2.960981 -0.1503,0.586184 -0.1503,1.247519 -0.18035,1.427879 -0.0301,0.180359 -0.15032,0.24049 -0.31565,0.646309 -0.16533,0.405819 -0.70642,1.968978 -0.992,2.510073 -0.28558,0.541095 -0.88679,1.142307 -1.05213,1.728493 -0.16533,0.586185 -0.22545,2.329708 0.10522,3.411898 0.33067,1.08218 1.71346,3.6674 2.08922,4.5091 0.37576,0.8417 0.496,1.62328 0.39079,1.93892 -0.10521,0.31564 -0.6463,0.79661 -1.08218,1.02207 -0.43588,0.22545 -1.63831,0.6463 -1.89383,0.992 -0.25552,0.3457 -0.0752,1.30764 0.015,1.77358 0.0902,0.46594 0.27054,1.36777 0.19539,1.74353 -0.0752,0.37576 -0.55612,0.97697 -0.72146,1.21746 -0.16534,0.24049 -0.3457,0.60121 -0.57116,0.78157 -0.22545,0.18037 -0.9469,0.54109 -1.12726,0.75152 -0.18037,0.21042 -0.18037,0.6914 -0.31565,0.90182 -0.13527,0.21043 -0.67636,0.57116 -0.97697,0.64631 -0.30061,0.0752 -0.96194,0.015 -1.1874,0.24048 -0.22545,0.22546 -0.46594,1.18741 -0.63127,1.89383 -0.16533,0.70643 -0.58619,2.5702 -0.96195,3.21651 -0.37576,0.6463 -1.45794,1.36775 -2.26958,1.62327 -0.81164,0.25551 -2.97601,0.55612 -4.13335,0.60121 -1.15734,0.0451 -3.62232,-0.0752 -4.7496,-0.27054 -1.12727,-0.1954 -3.1714,-0.85673 -3.75759,-0.70643 -0.58618,0.1503 -0.88679,1.41285 -0.61624,2.04413 0.27055,0.63128 1.65334,1.89383 2.11928,2.41989 0.46594,0.52606 0.94691,1.36776 1.71346,2.34473 0.76655,0.97698 3.35177,4.04317 3.93795,4.86984 0.58619,0.82667 0.3457,1.06716 -5.09529,1.08219 -5.44099,0.015 -26.964472,-0.16534 -31.954552,-0.72146 z"
           id="path1-3-7"
           transform="matrix(0.43628953,0,0,0.43628953,-22.81249,-2.1091244)"
           inkscape:original-d="m 82.366397,137.43765 c 0.781578,-1.02207 2.344736,-3.0662 3.126314,-4.08826 0.571154,-0.48097 1.713462,-1.44292 2.284616,-1.92389 0.450911,-0.6914 1.352732,-2.07419 1.803643,-2.76558 0.42085,-0.63128 1.262551,-1.89382 1.683401,-2.5251 0.120243,-0.30061 0.36073,-0.90182 0.480973,-1.20243 0.210425,-0.18036 0.631275,-0.54109 0.8417,-0.72146 0.330668,-0.33067 0.992003,-0.992 1.322671,-1.32267 0,-0.54109 0,-1.62328 0,-2.16437 0.270546,-0.60121 0.811639,-1.80365 1.082185,-2.40486 0.300608,-0.57116 0.901823,-1.71346 1.202431,-2.28462 0.09018,-0.24048 0.270546,-0.72146 0.360728,-0.96194 0,-0.27055 0,-0.81164 0,-1.08219 -1.563158,-0.69139 -4.689473,-2.07418 -6.252631,-2.76558 -1.23249,-1.20243 -3.69747,-3.60729 -4.92996,-4.80972 -1.533097,-2.85577 -4.599291,-8.56731 -6.132388,-11.42308 -0.450911,-1.593218 -1.352732,-4.779655 -1.803643,-6.372873 0.511032,-2.314676 1.533096,-6.944028 2.044128,-9.258704 1.292611,-1.984008 3.877834,-5.952024 5.170445,-7.936032 1.322673,-1.052125 3.968018,-3.156376 5.29069,-4.208502 1.593219,-1.112247 4.779656,-3.33674 6.372874,-4.448987 0.781579,-0.300608 2.344737,-0.901823 3.126316,-1.202431 0.45091,-0.150303 1.35273,-0.45091 1.80364,-0.601213 0.33067,0.09018 0.992,0.270546 1.32267,0.360728 0.15031,0.09018 0.45092,0.270546 0.60122,0.360728 0.30061,-0.180364 0.90182,-0.541092 1.20243,-0.721456 3.2165,-1.863765 9.64949,-5.591296 12.86599,-7.455061 -2.16437,1.743522 -6.49312,5.230567 -8.65749,6.974089 0.42085,0.03006 1.26255,0.09018 1.6834,0.120242 0.87176,-0.03006 2.61528,-0.09018 3.48704,-0.120242 1.32268,0.240486 3.96803,0.721457 5.2907,0.961943 1.77358,0.571154 5.32075,1.713462 7.09433,2.284616 1.41285,0.871761 4.23856,2.615283 5.65141,3.487044 0.8417,0.39079 2.52511,1.172369 3.36681,1.563158 1.47297,1.352733 4.41892,4.058198 5.8919,5.41093 0.78158,1.893826 2.34473,5.681478 3.12631,7.575304 0.24049,1.503037 0.72146,4.50911 0.96195,6.012146 -0.0902,0.330668 -0.27055,0.992005 -0.36073,1.322673 -0.30061,-0.511033 -0.90182,-1.533098 -1.20243,-2.044131 -0.0902,0.541093 -0.27055,1.62328 -0.36073,2.164374 -0.30061,0.8417 -0.90182,2.525101 -1.20243,3.366801 0,0.330668 0,0.992003 0,1.322671 -0.0601,0.03006 -0.18037,0.09018 -0.24049,0.120242 -0.27054,0.78158 -0.81163,2.344739 -1.08218,3.126318 -0.30061,0.300607 -0.90182,0.901823 -1.20243,1.20243 -0.0301,0.871761 -0.0902,2.615285 -0.12024,3.487045 0.6914,1.29261 2.07419,3.87783 2.76559,5.17044 0.0601,0.39079 0.18036,1.17237 0.24048,1.56316 -0.27054,0.24049 -0.81163,0.72146 -1.08218,0.96195 -0.60121,0.21042 -1.80364,0.63127 -2.40486,0.8417 0.0902,0.48097 0.27055,1.44291 0.36073,1.92388 0.0902,0.45091 0.27054,1.35274 0.36072,1.80365 -0.24049,0.30061 -0.72145,0.90182 -0.96194,1.20243 -0.0902,0.18036 -0.27055,0.54109 -0.36073,0.72145 -0.36073,0.18037 -1.08218,0.54109 -1.44291,0.72146 0,0.24048 0,0.72146 0,0.96194 -0.27055,0.18037 -0.81164,0.5411 -1.08219,0.72146 -0.33067,-0.0301 -0.992,-0.0902 -1.32267,-0.12024 -0.12024,0.48097 -0.36073,1.44292 -0.48097,1.92389 -0.21042,0.93188 -0.63128,2.79565 -0.8417,3.72753 -0.5411,0.36073 -1.62328,1.08218 -2.16438,1.44291 -1.08218,0.1503 -3.24655,0.45091 -4.32874,0.60121 -1.23249,-0.0601 -3.69747,-0.18036 -4.92996,-0.24048 -1.02206,-0.33067 -3.06619,-0.992 -4.08826,-1.32267 -0.1503,0.63127 -0.45091,1.89382 -0.60121,2.5251 0.6914,0.63127 2.07419,1.89382 2.76558,2.5251 0.24049,0.42085 0.72146,1.26255 0.96195,1.6834 1.29261,1.5331 3.87783,4.59929 5.17044,6.13239 -0.12024,0.12024 -0.36073,0.36073 -0.48097,0.48097 -10.76174,-0.0902 -32.285222,-0.27055 -43.046963,-0.36073 z"
           inkscape:path-effect="#path-effect1-7-3" /><g
           id="g8-2-4-4"
           transform="matrix(1.5526666,0.19913332,-0.19913332,1.5526666,-78.095949,-69.626649)"
           style="fill:url(#linearGradient13)"
           inkscape:transform-center-x="1.4539113"
           inkscape:transform-center-y="-3.5902117"><path
             style="fill:url(#linearGradient16);fill-opacity:0.464883;stroke:none;stroke-width:0.600001;stroke-dasharray:none;stroke-opacity:1"
             d="m 66.939198,61.905747 c 0.57162,1.380137 1.87253,2.375486 3.31753,2.685186 0.72513,0.17852 1.91442,0.256372 2.14351,-0.620427 0.26437,-0.255314 0.0281,0.535451 0.19663,-0.05152 0.22027,-0.949465 1.23301,-0.869358 1.91079,-1.20778 0.81739,-0.09766 1.66421,0.408561 2.45765,0.09102 0.50842,-0.641795 1.41665,-0.712877 1.85872,-1.465518 0.29027,-0.427654 -0.12954,-1.302678 0.72487,-1.1492 0.83576,0.05168 1.47247,-0.599685 2.21593,-0.892294 0.55776,-0.468359 1.04282,-1.122018 0.99755,-1.892402 0.13743,-0.722854 -0.39038,-1.410588 -0.6536,-1.996171 -0.28776,-0.713969 -0.82217,-1.142819 -1.3207,-1.672889 -0.76561,-0.731988 -1.78967,-1.161946 -2.83775,-1.278591 -1.08178,-0.294188 -2.22735,-0.385019 -3.33648,-0.319265 -0.67753,-0.07144 -1.28693,0.11205 -1.92609,0.132007 -0.86999,-0.01728 -1.61216,0.489472 -2.41844,0.739029 -1.41647,0.504302 -2.25158,1.843986 -3.16943,2.945569 -0.32854,0.767076 -0.9271,1.468825 -1.05054,2.288493 -0.21983,0.727292 -0.24547,1.477271 -0.17036,2.228517 0.0812,0.614716 0.42989,1.251049 1.06021,1.436241 z"
             id="path6-2-2-5" /><path
             style="fill:url(#linearGradient14);stroke:#000000;stroke-width:0.0336422;stroke-opacity:1"
             d="m 71.025212,64.680976 c 0.49544,-0.03885 1.36488,-0.238384 1.44878,-0.474076 0.21689,-0.515912 0.50636,-1.168415 1.17209,-1.257908 0.77901,-0.209287 1.40334,-0.422837 2.18394,-0.06811 0.98052,0.343481 1.63195,-0.462789 2.378904,-0.936068 0.7725,-0.31907 0.67855,-1.142826 0.96253,-1.721311 1.01914,0.05444 1.90783,-0.552367 2.75699,-1.047977 0.1809,-0.286488 1.06409,-1.145322 0.37649,-0.618926 -0.23694,0.179375 -0.71162,0.03922 -0.32252,-0.24078 -0.40073,0.724695 -1.07861,0.209919 -0.95372,0.326434 -0.36241,0.444152 -1.57863,0.417816 -1.64799,0.399922 1.02843,0.09821 -0.0414,0.959241 -0.56889,0.544785 -0.87325,-0.32064 -0.35327,-1.690583 0.52546,-1.400892 0.34688,0.233161 1.04635,-0.501135 0.76633,-0.323079 -0.44752,0.70484 -1.88795,-0.1647 -1.84758,0.90507 -0.696054,0.500821 -1.618504,-0.382724 -1.105494,-1.100266 -6e-4,-0.812959 -0.8094,-1.845809 0.10763,-2.452617 0.691434,-0.643553 1.581724,-1.039387 2.495814,-1.246455 0.57838,0.202195 0.73059,1.445182 -0.11061,1.230916 -0.0537,0.49891 0.62185,-0.442932 0.9838,-0.104454 0.46829,0.217889 0.5901,1.070107 1.21574,0.818955 0.28314,0.298823 -0.28257,0.921938 0.27675,0.504493 0.31224,0.232733 0.10565,0.871423 0.45529,0.813487 0.1321,0.34839 0.17879,1.103655 0.22592,0.281166 0.0168,-0.562489 -0.0463,0.219817 -0.19442,-0.294103 -0.24672,-0.300826 -0.6326,-1.054345 -0.0951,-1.131838 -0.17515,-0.730903 -0.21798,0.525298 -0.67504,-0.07932 -0.22117,-0.19933 -1.30772,-0.632989 -0.61383,-0.865368 0.28425,0.05503 0.89085,0.332631 0.26854,0.05702 -0.74135,0.07133 -1.49313,-0.471248 -1.4648,-1.249271 0.66537,-0.404709 0.84751,0.745017 1.41807,0.688318 0.35564,0.166783 1.15514,1.427828 0.64505,0.496372 -0.41274,-0.728111 -1.04891,-1.288554 -1.67668,-1.822381 -0.65565,-0.469658 -1.3935,-0.798842 -2.18902,-0.936088 -1.041304,-0.238562 -2.100984,-0.458596 -3.175294,-0.333558 -0.68496,-0.09785 -1.87676,0.242628 -2.22203,0.122424 0.4626,-0.149482 0.56741,1.237639 0.56337,0.29525 -0.0329,-0.684878 1.14453,-0.295988 0.96757,-0.222656 0.82308,-0.335375 1.74898,-0.0858 2.6062,-0.13401 0.65112,0.429366 1.386294,0.24734 2.084724,0.488708 0.3106,0.08396 1.09298,0.501611 0.64919,0.624167 0.99126,0.312637 -0.40377,1.034627 -0.45767,0.208879 -0.43746,-0.917291 -1.552164,-0.152641 -2.159664,-0.55057 -0.26546,-0.202925 -1.6103,-0.16368 -0.69559,-0.04636 0.50611,-0.302903 0.89708,0.423548 1.10167,0.427509 0.427814,-0.701606 1.693604,-0.190216 1.903154,0.516902 0.0806,0.468032 -0.90921,0.421136 -1.15487,0.869309 -0.36737,0.211114 -0.965704,0.668055 -1.335494,0.2483 0.14887,0.84522 -0.91993,1.578473 -1.68006,1.219093 -0.18556,-0.501895 -0.57466,-1.140115 -0.16128,-1.793377 -0.25559,0.310023 -0.26702,-0.643922 -0.22661,0.0019 -0.0136,0.461013 -0.3211,0.756145 0.10142,0.979966 0.13215,0.437245 0.24295,1.296326 -0.32876,1.433789 0.57038,-0.675685 0.5183,0.49864 0.58366,0.512189 0.41896,-0.0042 0.72228,0.328531 0.20278,-0.07126 -0.62909,-0.741573 0.87126,-1.660634 1.41041,-1.012114 0.22455,0.658695 0.55214,1.894596 -0.17954,2.291303 -0.77122,0.05305 -1.49867,-0.313628 -2.24611,-0.444956 -0.52926,-0.333079 -1.62979,-0.876889 -1.19822,-1.635729 0.07,-0.427304 0.87414,-0.188611 0.33762,-0.412104 -0.27929,-0.822574 -0.14043,0.386201 -0.53601,0.557978 -0.31616,0.254606 0.30433,0.657111 -0.3022,0.575476 -0.29174,-0.400012 -0.82165,0.21043 -0.24925,0.0713 0.43312,-0.253698 1.36554,0.282962 0.70129,0.647672 0.83588,-0.381255 1.70463,0.573516 2.21334,0.786851 0.55864,-0.451365 1.34516,0.02702 1.94193,0.185006 0.814824,0.269269 1.747264,0.843921 1.714584,1.814471 -0.0515,0.880815 -0.879,1.688765 -1.778244,1.615463 0.47911,0.499147 -0.75576,0.726895 -1.2385,0.53275 -0.45541,0.107426 -1.68909,-0.253449 -1.40463,-0.767648 0.66734,-0.107312 -0.84228,-0.03397 -1.13129,-0.132742 -0.86638,-0.176163 -1.58439,0.501733 -2.45413,0.117132 -0.55591,-0.03041 -2.21639,0.03732 -1.25443,-0.806744 0.34491,-0.52105 -0.62858,0.262769 -0.74631,-0.325052 -0.63467,-0.524644 0.17903,-1.414344 0.0725,-1.10023 -0.18113,-0.488971 0.56732,-0.895661 -0.11216,-1.136892 -0.18864,-0.177696 -0.55286,-0.605533 -0.1815,-0.149049 0.60874,0.376689 0.20014,0.766863 -0.32,0.674568 -0.24373,0.305889 0.7181,-0.254622 0.50899,0.352976 -0.45579,0.664212 -0.10555,1.298274 0.29903,1.857898 -0.47326,0.928562 -1.7286,0.177471 -2.5308,0.274665 -0.71288,0.16475 -0.60239,-1.214596 0.008,-0.455157 0.10973,-0.216559 -0.18703,-1.134552 -0.17814,-0.451487 -0.99851,0.431106 -0.84252,-2.093505 0.0466,-1.284945 0.22829,0.373065 0.98345,0.276783 1.03553,0.307815 -0.31035,0.513315 -0.48723,1.593698 0.26755,1.699419 -0.67102,-0.174818 -0.52231,-1.989799 0.21306,-1.224274 0.0125,0.366509 -0.18346,0.540917 0.19682,0.497191 0.26983,0.13166 -0.37471,-0.708268 -0.43765,-0.921033 -0.2539,-0.281443 0.0509,-1.040979 -0.21607,-0.36415 -0.4628,0.772221 -1.56013,-0.429165 -0.83313,-0.87314 0.0895,0.689668 0.37424,-0.890438 0.0203,-0.215819 -0.65741,0.06539 -0.57201,-1.457456 -0.0943,-1.184843 -0.21209,-0.759487 0.67054,-1.48826 1.27873,-0.997596 0.28262,0.249132 0.14878,0.734492 0.39543,0.167178 0.19757,-0.399014 1.20117,-0.451743 1.13493,-0.300741 -0.19076,-0.406014 0.42603,-0.970139 0.75903,-0.585141 -0.26947,-1.081857 -0.68075,0.781909 -1.38573,0.3863 -0.3583,-0.337753 0.58857,-1.401915 0.007,-0.555268 -0.19089,0.195117 -1.06117,-0.07667 -0.36917,0.09074 0.71761,0.308565 -0.23382,1.334274 -0.68849,0.667394 -0.63398,0.09038 -0.81896,-0.316039 -0.32312,-0.745042 0.69429,-0.246807 0.66982,-1.083247 1.31713,-1.338825 0.73937,-0.276335 -0.36653,0.532974 0.28634,0.111825 0.29936,-0.289406 0.88174,0.512973 0.88206,-0.108438 -0.26457,0.226007 -1.01542,0.01722 -0.74692,-0.479452 0.63842,-0.479498 -0.40675,0.451557 -0.63945,0.605794 -0.94462,0.946446 -1.78565,2.021698 -2.29489,3.269756 -0.46001,0.904622 -0.51178,1.926234 -0.45994,2.921523 -0.14078,1.015428 0.90036,1.778118 1.84756,1.641235 0.95966,0.06621 1.94977,0.05894 2.86002,0.411913 0.10048,0.294124 -0.63922,-0.0733 -0.23934,0.306148 -0.81056,-0.0169 -1.62639,-0.389447 -2.42547,-0.0784 -0.45372,0.197599 -0.97467,-0.39414 -0.22343,-0.335779 0.54723,-0.06885 1.78585,0.0067 1.8889,0.02454 -0.81854,-0.206536 -1.68618,-0.122797 -2.51152,-0.06541 0.28683,0.672916 0.88446,1.236337 1.49408,1.654863 0.70321,0.426548 1.48329,0.851995 2.31801,0.890946 l 0.10892,-0.01415 z m -0.33613,-0.0834 c 0.5026,-0.208525 -0.98394,0.03846 -0.10803,-0.134582 0.4319,-0.02411 1.11984,-1.058202 0.43119,-0.337049 -0.3064,0.256013 -1.2685,0.431597 -0.44539,0.03113 0.66916,-0.404335 1.36956,-1.265832 1.86809,-1.587167 -0.20477,0.306088 -0.76849,1.09328 -0.19862,0.394409 0.74319,-0.726537 -0.32465,0.728924 -0.32113,0.663542 0.2991,-0.172084 0.83444,-1.308315 0.73857,-0.335183 -0.0436,0.513146 -0.41457,1.246484 -1.02004,1.151522 0.48942,0.0659 1.05195,-1.548105 0.56214,-0.559163 -0.17116,0.287681 -0.82533,0.741671 -0.92306,0.635611 0.28296,-0.159478 0.96213,-0.855699 0.82595,-0.854448 -0.31667,0.432729 -1.10662,1.068368 -1.48967,0.963325 l 0.08,-0.03195 z m -1.09946,-0.27345 c 0.47719,-0.280585 0.31244,-0.144889 -0.12482,-0.118495 -0.55694,-0.03622 0.26513,-0.443306 -0.3552,-0.277909 -0.66215,-0.04038 -0.33934,-0.347259 0.13834,-0.311149 0.44068,-0.06617 0.97256,-0.123315 0.49933,-0.285306 0.25429,-0.349723 1.38841,-0.642439 1.33509,-0.410674 -0.24781,0.194409 -0.86954,0.389034 -0.22461,0.179145 0.25288,-0.352085 1.27417,-0.413626 0.53174,0.102962 -0.31337,0.190544 -1.30746,1.054723 -0.46384,0.434235 0.26612,-0.196625 0.97965,-0.93465 0.99656,-0.721627 -0.56131,0.569285 -1.18741,1.199496 -1.95613,1.448552 -0.12624,0.01523 -0.25672,0.0044 -0.37646,-0.03973 z m 0.64053,-0.47898 c 0.29676,-0.22457 1.40074,-1.079709 0.49105,-0.500001 -0.29519,0.109405 -1.265,0.570912 -0.39721,0.240026 0.53683,-0.08669 -0.68809,0.48475 -0.0938,0.259975 z m -1.999,-0.30227 c 0.27916,0.03258 1.07032,-0.101291 0.34313,-0.04675 -0.54214,0.04996 -0.71667,-0.574089 -0.0627,-0.321398 0.77796,-0.164116 -1.17889,0.0076 -0.68162,-0.302533 0.36168,0.129013 1.38062,-0.0092 1.34243,-0.10887 -0.46938,0.109856 -1.43631,0.149481 -1.6013,-0.11427 0.88072,-0.384721 1.89447,-0.15179 2.773,0.102722 -0.32563,0.226597 -1.14981,-0.0071 -0.33749,0.243259 -0.17789,0.11989 -0.9202,0.08352 -0.26884,0.164845 -0.26931,0.151478 -1.17793,0.165778 -0.36537,0.169206 0.45696,0.05722 -0.90178,0.542665 -1.14124,0.213789 z m 4.53185,-0.26918 c 0.33444,-0.238517 -0.35476,-0.558228 0.0911,-0.739455 -0.12909,0.341571 0.0726,-0.65581 0.36139,-0.172198 0.17894,0.333477 -0.25914,1.010165 -0.18536,0.283863 -0.0983,-0.270401 7.5e-4,1.10964 -0.26717,0.62779 z m -2.0114,-0.50664 c 0.46204,-0.331468 0.0875,0.132472 -0.0527,0.06286 l 0.0273,-0.03252 z m 2.64268,0.10442 c 0.14083,-0.231973 1.11874,-0.237536 0.95343,-0.182152 -0.26834,0.192599 -0.63259,0.28438 -0.95343,0.182152 z m -2.79279,-0.10945 c 0.16901,-0.277272 0.15896,0.04331 0,0 z m 2.08269,-0.0824 c 0.0871,-0.03661 -0.0859,0.21237 0,0 z m -1.21619,-0.0486 c -0.71511,-0.935707 0.95769,0.220735 0,0 z m 2.07833,0.034 c 0.11694,-0.360921 1.0056,-0.321111 0.34366,-0.03861 -0.10784,0.04035 -0.22938,0.08199 -0.34366,0.03861 z m -0.25593,-0.0468 c 0.1562,-0.441032 0.91303,-0.444967 0.26624,-0.05428 -0.0729,0.04823 -0.17798,0.128541 -0.26624,0.05428 z m 0.92499,-0.0972 c 0.43503,-0.332214 -0.22487,0.330382 0,0 z m -2.49505,-0.0399 c -0.44435,-0.737082 0.75803,0.283755 0,0 z m -0.75343,-0.24971 c 0.45582,-0.05475 0.14556,0.661542 0,0 z m 1.60571,0.2714 c 0.0401,-0.06996 0.0384,0.07082 0,0 z m 0.75275,-0.16959 c 0.41615,-0.776061 0.20928,0.465943 0,0 z m -1.28786,-0.0202 c -0.13995,-0.498711 0.40899,0.390542 0,0 z m -0.009,-0.11384 c -0.0386,-0.07109 -0.0399,0.06986 0,0 z m 0.27287,0.12704 c -0.0339,-0.45352 0.30535,0.08968 0,0 z m 1.6632,-0.0394 c 0.27713,-0.356699 -0.10459,0.249388 0,0 z m -3.30622,-0.0882 c 0.0933,-0.234178 0.21918,0.296243 0,0 z m 2.57143,-0.079 c 0.17965,0.01766 -0.0668,0.284963 0,0 z m -0.58573,0.0216 c 0.19828,-0.214314 0.11196,0.124269 -0.0124,0.07331 z m 6.331884,-2.13277 c 0.64689,-0.409576 1.2972,-0.865437 2.01572,-1.124435 0.32419,-0.254928 1.64222,-0.21244 0.82088,0.248244 -0.61128,0.186076 -1.18214,0.943411 -1.77592,0.842589 0.34801,-0.792933 -0.86605,0.740813 -1.06068,0.0336 z m -13.026304,-0.92225 c -0.19757,-0.447234 0.41596,-1.795437 0.60039,-0.739513 0.20849,0.402252 -0.0929,1.038373 -0.60039,0.739513 z m 15.536044,-4.44082 c -0.45139,-0.118994 -1.10757,-0.830784 -1.05721,-1.053734 0.58159,-0.110866 1.17854,1.019335 1.18125,1.09629 z m -1.66342,-0.74458 c 0.21407,-0.198286 0.35788,-0.07945 0,0 z m 0.265,-0.4823 c -0.10366,-0.718272 0.63208,0.570226 0,0 z m -3.716844,8.59528 c 0.02,-0.38967 1.0996,-0.451169 0.25703,-0.381794 -0.6363,0.288761 -1.91226,-0.253703 -1.23478,-0.877788 -0.72925,0.665551 -1.77724,0.121347 -2.61772,0.20334 0.10368,0.619688 0.81909,-0.204621 1.28101,0.145102 0.67209,-0.0016 1.31249,0.01503 1.36496,0.820478 -0.0569,-0.317433 1.27581,-0.32712 0.9495,0.09066 z m -4.60924,-0.39736 c -0.38627,-0.07982 -0.80561,-0.690228 -1.04348,-0.132756 0.34399,0.06773 0.712,0.0012 1.04348,0.132756 z m 4.27965,-0.10015 c -0.0389,-0.07092 -0.0396,0.07002 0,0 z m -4.07476,-0.19373 c -0.10294,-0.431543 -0.20606,-0.742014 -0.6762,-0.751736 -0.23108,-0.327739 0.3423,-1.034386 -0.20585,-0.39689 -0.92227,0.319359 0.51168,0.175629 0.56192,0.730952 -0.0108,0.02536 0.47313,0.683644 0.32013,0.417674 z m 6.269704,-0.19353 c -0.618344,-0.190517 0.57748,-0.42226 -0.20351,-0.290902 -0.838304,-0.802826 0.0152,0.371226 0.20351,0.290902 z m -8.600384,-0.43322 c -0.0157,-0.102184 -0.11294,0.216563 0,0 z m 0.17297,-0.16343 c -0.0157,-0.102184 -0.11294,0.216563 0,0 z m 2.68027,-0.0849 c 0.10331,-0.397215 0.33822,-0.634663 -0.1428,-0.282053 -0.0962,0.05449 0.16785,0.474968 0.1428,0.282053 z m 5.00211,-0.0394 c -0.0384,-0.07086 -0.0401,0.06994 0,0 z m -0.13652,-0.0346 c -0.0386,-0.07109 -0.0399,0.06986 0,0 z m -0.47805,-0.10455 c -0.0388,-0.07071 -0.0396,0.07004 0,0 z m -10.50559,-0.18834 c -0.10643,-0.735538 -0.29503,0.298687 0,0 z m 10.43752,0.15454 c -0.0387,-0.0708 -0.0397,0.0698 0,0 z m -0.0681,-0.027 c -0.59698,-0.841509 -1.50188,0.191221 -2.2326,-0.474972 -0.577,-0.410091 -0.98089,-1.012398 -1.7637,-0.897678 -0.26699,-0.428209 -0.20946,0.603811 -0.17429,0.255158 0.52496,-0.466463 1.78153,0.145333 1.55655,0.735227 -0.89451,0.0026 0.46438,0.08107 0.76856,0.110177 0.62036,0.225985 1.31826,-0.20687 1.84548,0.272088 z m -5.19349,-0.43659 c 0.15261,-0.193611 -0.22121,0.206514 0,0 z m 1.38513,0.002 c -0.0123,-0.09621 -0.0983,0.174713 0,0 z m 0.61939,-0.0762 c -0.10573,-0.0658 -0.0154,0.08371 0,0 z m -3.01031,-0.34733 c -0.32824,-0.474187 -0.0666,0.16971 0.0517,0.05017 l -0.0305,-0.02955 z m -2.17747,0.0306 c -0.0386,-0.07109 -0.0399,0.06986 0,0 z m 3.92364,-0.11025 c -0.0158,-0.102117 -0.11278,0.216577 0,0 z m -4.43707,-0.37499 c -0.015,-0.227421 -0.0317,0.198793 0,0 z m 3.41402,-0.0646 c 0.19791,-0.164306 0.84177,-0.161849 0.33253,-0.428017 -0.24041,-0.312129 -0.58629,-0.955127 -0.76939,-0.998508 -0.36939,-0.08775 -0.51671,-0.695927 -0.54748,-0.05505 -0.27598,0.225318 -0.81822,0.899654 -0.27048,0.282946 0.53927,-0.621752 1.28553,0.22659 1.491,0.750853 0.0379,0.179108 -0.0338,0.405204 -0.23618,0.447776 z m -3.41964,-0.36532 c -0.0357,-0.392896 -0.26574,-1.285692 -0.31631,-1.330814 0.0408,0.432866 0.33537,1.320909 0.31849,1.430867 l -0.002,-0.100053 z m 2.59823,0.0853 c 0.17083,-0.576953 -0.1751,0.192102 0.001,-1e-5 z m -0.064,-0.32169 c -0.0837,-0.15787 -0.007,0.126816 0,0 z m -0.085,-0.0506 c -0.0388,-0.07071 -0.0396,0.07005 0,0 z m 11.740734,-0.03468 c -0.0385,-0.07055 -0.0399,0.06991 0,0 z m -13.587014,-0.15115 c -0.0385,-0.07055 -0.0399,0.06991 0,0 z m 2.15649,-0.009 c -0.0384,-0.07083 -0.04,0.06956 0,0 z m -2.20821,-0.10725 c -0.0198,-0.414538 -0.2311,-0.228065 0,0 z m 2.31274,-0.0487 c 0.1136,-0.236868 -0.28896,0.385969 0,0 z m 11.395884,0.18469 c -0.0384,-0.07074 -0.0401,0.07005 0,0 z m -0.95682,-0.14166 c 0.32697,-0.285124 0.0468,-0.781747 -0.005,-0.196903 l -0.005,0.144876 z m -0.85227,-0.30839 c -0.0388,-0.07063 -0.0397,0.07002 0,0 z m 0.0556,-0.0872 c -0.0158,-0.102117 -0.11278,0.216577 0,0 z m 0.0662,-0.0934 c 0.0376,-0.17001 -0.20228,0.231933 0,0 z m -2.30702,-0.30596 c 0.13695,-0.314757 1.41959,-1.09814 0.51697,-0.790159 0.11991,0.701983 -0.865434,0.303414 -0.52381,0.971359 l 0.007,-0.04281 8e-5,-0.138387 z m 0.67131,-0.85869 c 0.11365,-0.06593 0.0143,0.08447 0,0 z m 0.69867,0.90467 c 0.31667,-0.277402 0.10945,-0.76609 0.0525,-0.141491 0.0258,-0.0084 -0.21783,0.296142 -0.0525,0.141491 z m -10.074714,-0.16012 c -0.0324,-0.336489 -0.19579,-0.05656 0,0 z m -1.90364,-0.1039 c -0.0388,-0.07071 -0.0396,0.07005 0,0 z m 2.77289,-0.0353 c -0.0388,-0.07071 -0.0396,0.07004 0,0 z m -2.87409,-0.0981 c -0.33271,-0.337733 0.20415,0.27894 0,0 z m 2.94328,0.0327 c -0.0384,-0.07086 -0.0401,0.06994 0,0 z m -0.0681,-0.0339 c -0.0388,-0.07071 -0.0397,0.07004 0,0 z m 12.524834,0.005 c -0.0397,-0.124795 -0.0111,0.164707 0,0 z m -3.24826,-0.0665 c -0.0386,-0.0705 -0.0399,0.06982 0,0 z m -1.46979,-0.18171 c -0.0385,-0.07055 -0.0399,0.06991 0,0 z m 4.6538,0.0187 c 0.01,-0.309979 -0.14572,-0.02176 0,0 z m -2.97609,-0.0662 c -0.0385,-0.0709 -0.0401,0.06962 0,0 z m 0.83722,-0.11665 c -0.0924,-0.382176 -0.89009,-0.08606 -0.23144,-0.163799 0.0604,-0.01306 0.47202,0.472768 0.23144,0.163799 z m -0.78164,0.0295 c -0.0207,-0.09187 -0.0912,0.175139 0,0 z m -1.7671,0.002 c 0.01,-0.309762 -0.14589,-0.02174 0,0 z m -6.805664,-0.10944 c 0.15075,-0.363832 1.18277,-0.719945 0.52999,-0.866346 -0.12247,-0.246635 -0.39121,-1.130911 -0.20487,-0.405472 0.28902,0.545151 -0.0975,1.199651 -0.32512,1.271818 z m -0.17511,0.0317 c -0.0387,-0.07079 -0.0397,0.0698 0,0 z m -1.33437,-0.0479 c -0.0387,-0.07116 -0.0397,0.06971 0,0 z m 12.937234,0.0964 c -0.0387,-0.208156 -0.0735,0.120569 0,0 z m -2.76712,-0.0906 c 0.16066,-0.204083 -0.24747,0.236412 0,0 z m -0.59597,-0.0669 c 0.32987,-0.282058 -0.3999,0.287066 0,0 z m -1.12755,0.0534 c -0.24977,-0.367089 -0.231,-0.08916 0,0 z m 1.27672,-0.21471 c -0.0384,-0.07083 -0.04,0.06956 0,0 z m -0.65025,-0.007 c -0.0384,-0.07083 -0.04,0.06956 0,0 z m 0.68521,-0.0585 c -0.0384,-0.07083 -0.04,0.06956 0,0 z m 0.14058,-0.32913 c -0.0388,-0.07071 -0.0396,0.07005 0,0 z m -9.103264,-0.13443 c -0.0386,-0.07051 -0.0399,0.06982 0,0 z m 2.80249,-0.0515 c 0.0551,-0.286342 -0.14791,-0.05394 0,0 z m -0.0317,-0.35293 c 0.29341,-0.330832 -0.1711,-1.315351 0.0492,-0.388444 -0.11181,0.380223 -0.54153,-0.352145 -0.22239,0.212203 0.0139,0.02849 0.18934,0.451456 0.17322,0.176241 z m 4.951794,0.0348 c -0.14716,-0.05989 -0.29186,0.200117 0,0 z m 0.74267,-0.0247 c -0.096,-0.236449 -0.4769,-0.320416 -0.29538,-0.09412 0.10307,0.01615 0.19649,0.06396 0.29538,0.09412 z m -0.99926,0.0145 c 0.28929,0.120162 0.16545,0.107516 0,0 z m 0.17442,0.0698 c -0.0389,-0.07092 -0.0396,0.07002 0,0 z m 0.23737,-0.1644 c -0.0386,-0.07091 -0.0401,0.06998 0,0 z m -1.520934,-0.46908 c -0.32834,-0.706639 -0.9632,-1.34655 -1.52184,-1.728272 0.52008,-0.332014 -0.61543,0.274073 -0.73171,-0.253092 0.54034,0.560853 1.595,0.563131 1.84226,1.434015 0.21716,-0.05839 0.4654,1.101692 0.41129,0.547349 z m -6.68835,-0.0277 c 0.41598,0.0014 0.49413,-0.94241 0.19959,-0.261815 -0.0856,0.06541 -0.20693,0.133579 -0.19959,0.261815 z m 7.817304,-0.11948 c -0.10138,-0.360253 1.02079,-0.635278 0.23353,-0.440612 -0.17771,0.01462 -0.23004,0.981239 -0.23353,0.440612 z m -6.148534,-0.46829 c 0.17917,-0.361688 0.9872,-0.112526 0.31551,-0.305674 -0.12903,-0.101074 -0.62102,0.64787 -0.31551,0.305674 z m 6.962604,0.064 c -0.0384,-0.07083 -0.04,0.06956 0,0 z m -4.071564,-0.14452 c -0.0384,-0.07085 -0.0401,0.06995 0,0 z m -0.0335,-0.0665 c -0.0386,-0.07058 -0.0399,0.06991 0,0 z m -1.95078,-0.0217 c -0.0385,-0.07055 -0.0399,0.06991 0,0 z m 1.83406,-0.1367 c -0.25452,-0.372878 -0.69678,-0.321546 -0.11433,-0.06392 0.002,-0.0046 0.35564,0.338736 0.11433,0.06392 z m -3.96318,-0.0606 c 0.22382,-0.332844 0.54425,-0.665047 -0.003,-0.304866 -0.0506,0.0598 -0.14348,0.292611 0.003,0.304866 z m 1.34118,-0.0981 c 0.1044,-0.203156 0.0161,-0.18782 -0.015,-0.0035 z m 0.12309,-0.32307 c 0.0144,-0.25933 0.10985,-1.02681 0.0184,-0.857727 -0.72366,0.136276 -1.35799,0.544848 -2.07206,0.713544 0.72571,0.06638 1.21379,-0.774495 1.92844,-0.392527 0.27476,0.07569 0.0623,0.907803 0.12526,0.53671 z m -2.23721,-0.0421 c -0.0388,-0.07071 -0.0397,0.07008 0,0 z m 3.73117,-0.0246 c -0.0384,-0.07083 -0.04,0.06956 0,0 z"
             id="path3789-9-8-7-1-7-5"
             class="UnoptimicedTransforms" /><path
             style="fill:url(#linearGradient18);fill-opacity:0.464883;stroke:#000000;stroke-width:0.600001;stroke-dasharray:none;stroke-opacity:1"
             d=""
             id="path7-6-7-1" /><path
             style="fill:url(#linearGradient19);fill-opacity:0.464883;stroke:#000000;stroke-width:0.600001;stroke-dasharray:none;stroke-opacity:1"
             d=""
             id="path8-8-9-7" /></g><path
           style="fill:#29b601;fill-opacity:1;stroke:#000000;stroke-width:0.7;stroke-opacity:1"
           d="M 32.413882,59.391449 44.403996,38.521499 58.184625,30.342471 53.574131,56.951377 Z"
           id="path19"
           sodipodi:nodetypes="ccccc" /><path
           style="fill:#01abd1;fill-opacity:1;stroke:#000000;stroke-width:0.7;stroke-opacity:1"
           d="m 43.480811,38.327276 c 0,0 1.054544,-3.538247 -0.0071,-4.53902 -0.99204,-0.935178 -0.930782,-2.59075 -1.6834,-3.72753 -0.782906,-1.182528 -1.862697,-2.144214 -2.88583,-3.12631 -0.758999,-0.728556 -1.519917,-1.47515 -2.40486,-2.04414 -1.191476,-0.766081 -2.488932,-1.403574 -3.84777,-1.80364 -0.717777,-0.211326 -2.669789,-0.505637 -3.4119,-0.60121 -1.008002,-0.129816 0.41608,-1.654633 0.41608,-1.654633 0,0 -4.158866,1.200007 -5.120581,1.23378 -1.469032,0.05159 -2.885145,0.737182 -4.286228,1.181798 -0.8225,0.26101 -1.609946,0.382745 -2.403612,0.72146 -0.856323,0.365455 -1.625614,0.892923 -2.461957,1.302039 -1.324826,0.648069 -2.631818,1.245077 -3.657093,2.305251 -1.09077,1.127899 -2.5220824,3.80828 -2.5220824,3.80828 L 2.4708766,27.595753 17.140513,22.244936 33.144907,18.461559 58.310892,29.969663 Z"
           id="path20"
           sodipodi:nodetypes="csssssscssssscccccc" /><path
           style="fill:#027bdb;fill-opacity:1;stroke:#000000;stroke-width:0.7;stroke-opacity:1"
           d="m 17.069876,29.396527 c 1.101637,0.701209 3.304912,2.103626 5.508186,3.506043 -0.341696,1.181798 -0.683391,2.363597 -0.794118,3.435467 -0.110726,1.071871 0.0095,2.033815 0.119859,2.659866 0.110342,0.626052 1.452816,4.504312 2.514962,6.348037 1.062145,1.843725 2.464979,3.446965 3.20929,4.365182 0.74431,0.918217 0.830097,1.151409 0.63695,1.760508 -0.193146,0.609098 -0.665226,1.594103 -1.057735,2.429725 -0.392508,0.835622 -0.705446,1.521864 -1.382967,2.10547 -0.677521,0.583605 -1.78571,1.095075 -2.781916,1.46551 -0.996206,0.370434 -1.663215,0.561008 -2.504915,0.801495 0,0 -4.569233,-29.578511 -3.467596,-28.877303 z"
           id="path21"
           sodipodi:nodetypes="ccscsccssscc"
           inkscape:path-effect="#path-effect21"
           inkscape:original-d="m 15.968239,28.695319 c 2.203274,1.402417 4.406549,2.804834 6.609823,4.207251 0,0 -0.683391,2.363597 -1.025087,3.545395 0.120243,0.961943 0.240487,1.923887 0.36073,2.88583 0.107661,0.28766 1.442914,4.16842 2.164371,6.25263 1.402834,1.60324 2.805668,3.20648 4.208502,4.80972 0.08579,0.233193 0.171574,0.466386 0.257361,0.699579 -0.47208,0.985004 -0.94416,1.970009 -1.41624,2.955012 -0.312937,0.686241 -0.625875,1.372483 -0.938812,2.058724 -1.042105,0.48097 -2.164371,0.96194 -3.126314,1.44291 -0.961943,0.48097 -2.525101,0.72146 -2.525101,0.72146 z"
           transform="translate(-14.11408)" /><path
           style="fill:none;fill-opacity:1;stroke:#000000;stroke-width:1.96101;stroke-dasharray:none;stroke-opacity:1"
           d="m 1.2371553,237.23748 c 0.4066532,-1.20925 1.0301668,-3.41989 1.0443384,-4.66692 0.014172,-1.24702 -0.581004,-1.53044 -1.2895411,-1.743 -0.70853712,-0.21256 -1.53044188,-0.35426 -2.2956626,-0.42512 -0.7652208,-0.0709 -1.4737604,-0.0709 -2.4940544,0.0425 -1.0202939,0.11337 -2.3523483,0.3401 -3.5426912,0.70854 -1.190343,0.36844 -2.2389809,0.87859 -3.3159594,1.5021 -1.076978,0.62352 -2.182295,1.36039 -2.990029,2.1823 -0.807735,0.8219 -1.317882,1.72883 -1.601298,2.70662 -0.283415,0.97778 -0.340098,2.02641 -0.240903,2.81997 0.0992,0.79357 0.354269,1.33206 0.708538,1.87055 0.354269,0.53849 0.807735,1.07698 1.360395,1.6013 0.55266,0.52432 1.204513,1.03446 1.757173,1.36039 0.552661,0.32593 1.006124,0.46763 1.7996866,0.72271 0.7935625,0.25507 1.9272258,0.62351 2.791641,0.93527 0.8644153,0.31175 1.4595908,0.56683 1.8280298,0.77939 0.368439,0.21256 0.5101468,0.38261 0.5810006,0.56683 0.070854,0.18422 0.070854,0.38261 -0.056683,0.581 -0.1275368,0.19839 -0.3826109,0.39678 -1.1053183,0.45346 -0.7227074,0.0567 -1.9130558,-0.0283 -2.8483252,-0.16296 -0.9352694,-0.13462 -1.6154675,-0.31884 -2.1787555,-0.52786 -0.563288,-0.20902 -1.009665,-0.44283 -1.385193,-0.59163 -0.375529,-0.14879 -0.680195,-0.21256 -0.945893,-0.20193 -0.265697,0.0106 -0.492439,0.0957 -0.715629,0.27987 -0.223189,0.18422 -0.442833,0.46763 -0.612883,0.77939 -0.17005,0.31176 -0.290501,0.65186 -0.492434,1.36394 -0.201933,0.71208 -0.48535,1.79615 -0.641227,2.50114 -0.155877,0.705 -0.184217,1.03092 -0.138162,1.37456 0.04605,0.34364 0.166509,0.705 0.325928,0.96716 0.15942,0.26215 0.357814,0.42512 0.694368,0.58808 0.336554,0.16296 0.811278,0.32593 1.250571,0.45701 0.439293,0.13108 0.843159,0.23027 1.232856,0.30821 0.389697,0.0779 0.765221,0.13463 1.31434,0.1984 0.549119,0.0638 1.2718249,0.13462 1.8634527,0.16649 0.5916279,0.0319 1.0521802,0.0248 1.6438112,-0.0142 0.591631,-0.039 1.3143371,-0.10983 2.1185274,-0.24091 0.8041902,-0.13108 1.6898633,-0.32238 2.4975971,-0.58809 0.8077338,-0.2657 1.5375267,-0.60579 2.1752112,-0.96006 0.63768449,-0.35427 1.18325961,-0.72271 1.6615234,-1.14075 0.4782638,-0.41804 0.889213,-0.88567 1.2718236,-1.45959 0.3826106,-0.57391 0.7368826,-1.25411 0.9636141,-1.84928 0.2267315,-0.59517 0.3259268,-1.10532 0.3613538,-1.57296 0.035427,-0.46763 0.00708,-0.89276 -0.035428,-1.36039 -0.042512,-0.46764 -0.099195,-0.97778 -0.2905009,-1.47376 -0.1913062,-0.49598 -0.5172309,-0.97778 -0.9494406,-1.45959 -0.4322097,-0.48181 -0.9706959,-0.96361 -1.69340514,-1.40291 -0.72270923,-0.43929 -1.62963956,-0.83607 -2.48697056,-1.18325 -0.857331,-0.34719 -1.6650637,-0.64477 -2.3310896,-0.89985 -0.6660258,-0.25507 -1.190345,-0.46763 -1.4922064,-0.62547 -0.3018614,-0.15785 -0.3812619,-0.26097 -0.4184594,-0.38017 -0.037197,-0.1192 -0.032187,-0.25448 0.00539,-0.37723 0.037575,-0.12274 0.1077199,-0.23297 0.2179409,-0.34319 0.1102211,-0.11022 0.2605282,-0.22045 0.440891,-0.32566 0.1803628,-0.10521 0.3907908,-0.20542 0.5711575,-0.27055 0.1803668,-0.0651 0.3306579,-0.0952 0.4634278,-0.11525 0.1327698,-0.02 0.2480086,-0.0301 0.9293827,-0.0251 0.6813742,0.005 1.9288979,0.025 2.67791011,0.0601 0.74901217,0.0351 0.99951872,0.0852 1.21966807,0.006 0.22014934,-0.0789 0.40994246,-0.28673 0.81659562,-1.49597 z"
           id="path22"
           inkscape:path-effect="#path-effect22"
           inkscape:original-d="m 1.020295,238.23887 c 0.6235129,-2.21064 1.2470277,-4.42128 1.8705406,-6.63192 -0.5951714,-0.28341 -1.1903447,-0.56683 -1.7855161,-0.85024 -0.82190344,-0.14171 -1.64380936,-0.28341 -2.4657128,-0.42512 -0.7085375,0 -1.4170771,0 -2.1256146,0 -1.3320504,0.22673 -2.6641048,0.45346 -3.9961552,0.68019 -1.0486353,0.51015 -2.0972736,1.0203 -3.1459089,1.53045 -1.105319,0.73688 -2.21064,1.47375 -3.315959,2.21063 -0.510147,0.90693 -1.020296,1.81386 -1.530443,2.72079 -0.05668,1.04864 -0.113366,2.09727 -0.170049,3.14591 0.255073,0.53849 0.510148,1.07698 0.765221,1.61547 0.453464,0.53849 0.90693,1.07698 1.360394,1.61547 0.651854,0.51015 1.303711,1.02029 1.955565,1.53044 0.453464,0.14171 0.906929,0.28341 1.360393,0.42512 1.13366,0.36844 2.2673235,0.73688 3.4009835,1.10532 0.5951715,0.25507 1.1903448,0.51015 1.7855163,0.76522 0.1417075,0.17005 0.2834155,0.3401 0.425123,0.51015 0,0.19839 0,0.39678 0,0.59517 -0.2550735,0.19839 -0.5101478,0.39678 -0.7652213,0.59517 -1.1903429,-0.085 -2.3806894,-0.17005 -3.5710323,-0.25507 -0.6801961,-0.18422 -1.3603942,-0.36844 -2.0405902,-0.55266 -0.446379,-0.23382 -0.892758,-0.46763 -1.339137,-0.70145 -0.304671,-0.0638 -0.609343,-0.12754 -0.914014,-0.19131 -0.226732,0.085 -0.453465,0.17005 -0.680197,0.25507 -0.219646,0.28342 -0.439294,0.56683 -0.65894,0.85025 -0.120452,0.3401 -0.240903,0.6802 -0.361355,1.0203 -0.283415,1.08406 -0.56683,2.16813 -0.850245,3.25219 -0.02834,0.32593 -0.05668,0.65185 -0.08502,0.97778 0.120451,0.36135 0.240903,0.72271 0.361354,1.08406 0.19839,0.16296 0.396782,0.32593 0.595172,0.48889 0.47472,0.16296 0.949442,0.32593 1.424162,0.48889 0.403866,0.0992 0.807734,0.19839 1.2116,0.29759 0.375525,0.0567 0.751051,0.11337 1.126576,0.17005 0.722708,0.0709 1.4454186,0.14171 2.1681268,0.21256 0.4605493,-0.007 0.9211001,-0.0142 1.3816494,-0.0213 0.7227082,-0.0709 1.4454185,-0.14171 2.1681267,-0.21256 0.8856719,-0.19131 1.7713464,-0.38261 2.6570183,-0.57392 0.7297936,-0.3401 1.4595893,-0.68019 2.1893829,-1.02029 0.54557382,-0.36844 1.09114928,-0.73688 1.6367231,-1.10532 0.4109517,-0.46764 0.8219047,-0.93527 1.2328564,-1.40291 0.3542687,-0.68019 0.7085385,-1.36039 1.0628072,-2.04058 0.099195,-0.51015 0.1983908,-1.0203 0.2975861,-1.53045 -0.028342,-0.42512 -0.056683,-0.85025 -0.085025,-1.27537 -0.056683,-0.51015 -0.1133661,-1.02029 -0.1700491,-1.53044 -0.3259272,-0.48181 -0.6518555,-0.96361 -0.9777827,-1.44542 -0.5384885,-0.48181 -1.0769785,-0.96361 -1.61546699,-1.44542 -0.90692793,-0.39678 -1.81385861,-0.79356 -2.72078651,-1.19034 -0.8077327,-0.29759 -1.6154678,-0.59517 -2.4232005,-0.89276 -0.5243177,-0.21256 -1.0486371,-0.42512 -1.5729548,-0.63768 -0.079403,-0.10313 -0.1588072,-0.20625 -0.2382107,-0.30938 0.00501,-0.13527 0.010021,-0.27055 0.015031,-0.40582 0.070142,-0.11022 0.1402834,-0.22045 0.210425,-0.33067 0.1503035,-0.11022 0.3006076,-0.22045 0.4509111,-0.33067 0.2104249,-0.1002 0.4208503,-0.20041 0.6312752,-0.30061 0.1503035,-0.0301 0.3006074,-0.0601 0.4509109,-0.0902 0.1152327,-0.01 0.2304657,-0.0201 0.3456984,-0.0301 1.247519,0.02 2.4950417,0.0401 3.74256075,0.0601 0.25050582,0.0501 0.50101239,0.1002 0.75151821,0.1503 0.18979276,-0.20785 0.37958608,-0.4157 0.56937884,-0.62355 z"
           transform="matrix(0.43209783,0,0,0.43209783,68.256735,-41.956299)" /><path
           style="fill:none;fill-opacity:1;stroke:#000000;stroke-width:0.630547;stroke-dasharray:none;stroke-opacity:1"
           d="m 70.281592,58.424438 0.872997,9.499884 c 0,0 0.858617,0.241813 1.724591,0.09003 0.792138,-0.138844 1.730305,-0.327283 2.418827,-0.539879 0.520532,-0.160726 1.225822,-0.530996 1.666191,-0.851712 0.599977,-0.436951 1.19978,-0.895315 1.571301,-1.537862 0.347513,-0.601012 0.717516,-0.826977 0.869227,-1.504441 0.08579,-0.383089 0.151703,-1.245992 0.133733,-1.638156 -0.02501,-0.54582 -0.166898,-1.084618 -0.334317,-1.604731 -0.182346,-0.566447 -0.399684,-0.949671 -0.835801,-1.303844 -0.46024,-0.373759 -0.575692,-0.548446 -1.303842,-0.86923 -0.726081,-0.31987 -1.548855,-0.377839 -2.340236,-0.434614 -1.101318,-0.07901 -2.239934,-0.139469 -3.309755,0.133728 -0.408274,0.104262 -1.132916,0.560829 -1.132916,0.560829 z"
           id="path25"
           sodipodi:nodetypes="ccsssssssssssc" /><path
           style="fill:#000000;fill-opacity:1;stroke:#000000;stroke-width:0.366858;stroke-dasharray:none;stroke-opacity:1"
           d="m 73.439459,60.255882 0.433337,4.526158 c 0,0 0.768893,-0.03436 0.984364,-0.254752 0.215465,-0.220406 0.73548,-0.529306 0.925528,-0.920801 0.144125,-0.296884 0.229791,-0.665645 0.247718,-0.995177 0.02248,-0.413071 -0.02024,-0.833927 -0.142131,-1.229245 -0.07494,-0.243071 -0.400252,-0.45146 -0.591661,-0.618979 -0.17143,-0.150027 -0.395092,-0.23571 -0.612985,-0.302173 -0.453844,-0.138427 -1.244164,-0.205031 -1.244164,-0.205031 z"
           id="path26"
           sodipodi:nodetypes="ccsssssscc" /><path
           style="fill:#000000;fill-opacity:1;stroke:none;stroke-width:0.366858;stroke-dasharray:none;stroke-opacity:1"
           d="m 79.4716,61.97573 0.200583,-0.01671 c 0,0 0.04966,2.196807 0.01667,2.473955 -0.05613,0.472131 -0.06685,0.96569 -0.25073,1.404143 -0.182374,0.434854 -0.500798,0.805475 -0.819085,1.1534 -0.370812,0.405345 -0.788071,0.77827 -1.253699,1.069818 -0.494859,0.309852 -1.048227,0.525425 -1.604728,0.702072 -0.845742,0.268459 -1.723844,0.456334 -2.607684,0.534908 -0.444145,0.03948 -0.89391,0.01404 -1.337277,-0.03343 -0.236877,-0.02537 -0.702069,-0.133728 -0.702069,-0.133728 l -0.06686,-1.203547 1.738456,0.100294 1.454291,-0.317613 c 0,0 1.119964,-0.250737 1.287122,-0.284167 0.167162,-0.03343 1.220266,-0.685355 1.387423,-0.71879 0.167162,-0.03343 1.353995,-0.952805 1.353995,-0.952805 0,0 0.256627,-0.474796 0.401182,-0.835799 0.144554,-0.361003 0.299036,-0.846931 0.434615,-1.337274 0.13558,-0.490344 0.36775,-1.604731 0.36775,-1.604731 z"
           id="path27"
           sodipodi:nodetypes="ccsssssssccccssczzc" /><path
           style="fill:none;fill-opacity:1;stroke:#000000;stroke-width:0.61995;stroke-dasharray:none;stroke-opacity:1"
           d="m 57.751516,74.595133 c -0.622326,0.435628 -0.547647,2.750683 0.08713,3.086739 0.634773,0.336056 4.368727,0.03734 4.991053,-0.398289 0.622326,-0.435628 0.622326,-2.750679 -0.01245,-3.086735 -0.634773,-0.336056 -4.443406,-0.03734 -5.065732,0.398285 z"
           id="path28"
           inkscape:path-effect="#path-effect29"
           inkscape:original-d="m 57.104297,74.259076 c 0.02489,0.771685 0.09957,3.08674 0.124465,3.858425 1.244652,-0.09957 4.978606,-0.39829 6.223258,-0.497863 0,-0.771683 0,-3.086734 0,-3.858417 -1.269545,0.09957 -5.078178,0.398284 -6.347723,0.497855 z"
           sodipodi:nodetypes="ccccc"
           transform="matrix(0.83235441,0,0,0.83235441,7.3471184,0.56102089)" /><path
           style="fill:#000000;fill-opacity:1;stroke:none;stroke-width:0.520286;stroke-dasharray:none;stroke-opacity:1"
           d="m 55.230185,65.247478 c 0.01302,0.122517 -0.0911,0.509028 0.03042,0.823757 0.129661,0.335818 0.485031,0.596843 0.485031,0.596843 l 4.230822,-0.280996 0.104451,-0.820448 -0.190726,-0.776514 z"
           id="path29"
           sodipodi:nodetypes="csccccc" /><path
           style="fill:#000000;stroke-width:0.7"
           d="m 74.104145,163.94013 c 0.190029,0.48596 0.81128,0.88677 1.522717,0.7064 0.711437,-0.18036 1.513059,-0.9419 2.114277,-1.28259 0.601218,-0.34069 1.002022,-0.26052 1.342709,-0.12024 0.340687,0.14028 0.621257,0.34069 0.801621,0.66133 0.180364,0.32065 0.260528,0.76154 0.06012,1.34271 -0.200405,0.58118 -0.681379,1.30264 -1.042106,1.76357 -0.360727,0.46093 -0.601215,0.66134 -0.861738,1.02206 -0.260523,0.36073 -0.541093,0.88179 -0.681375,1.36276 -0.140283,0.48097 -0.140283,0.92186 -0.100733,1.30035 0.03955,0.37849 0.11865,0.69457 0.19775,1.01066 0.864417,-0.0142 1.728833,-0.0283 2.189382,-0.0354 0.460548,-0.007 0.517235,-0.007 0.524321,-0.27633 0.0071,-0.26924 -0.03542,-0.80773 0.0071,-1.17617 0.04251,-0.36844 0.17005,-0.56683 0.418039,-0.94944 0.247988,-0.38261 0.616428,-0.94944 1.020295,-1.5517 0.403868,-0.60226 0.843158,-1.23994 1.119488,-1.79969 0.276329,-0.55975 0.389691,-1.04155 0.425118,-1.49502 0.03543,-0.45346 -0.0071,-0.87858 -0.141705,-1.32496 -0.134623,-0.44638 -0.361353,-0.91401 -0.602257,-1.23286 -0.240904,-0.31884 -0.495978,-0.48889 -0.935271,-0.69437 -0.439293,-0.20547 -1.062807,-0.44637 -1.672149,-0.58099 -0.609342,-0.13461 -1.20452,-0.16295 -1.842203,-0.0567 -0.637683,0.10628 -1.317883,0.34719 -1.920139,0.66603 -0.602255,0.31884 -1.126573,0.71562 -1.50933,1.19956 -0.382757,0.48395 -0.623952,1.05505 -0.433924,1.54101 z"
           id="path1"
           inkscape:path-effect="#path-effect2"
           inkscape:original-d="m 73.672919,164.02528 c 0.621255,0.40081 1.242506,0.80162 1.863761,1.20243 0.801619,-0.76154 1.603241,-1.52308 2.40486,-2.28462 0.40081,0.0802 0.80162,0.16033 1.20243,0.24049 0.280566,0.2004 0.561134,0.40081 0.8417,0.60121 0.08016,0.44089 0.160327,0.88178 0.24049,1.32267 -0.480973,0.72146 -0.961947,1.44292 -1.44292,2.16438 -0.240483,0.2004 -0.480967,0.40081 -0.72145,0.60121 -0.280566,0.52105 -0.561134,1.04211 -0.8417,1.56316 0,0.44089 0,0.88178 0,1.32267 0.0791,0.31609 0.2373,0.94826 0.2373,0.94826 0,0 1.728834,-0.0283 2.59325,-0.0425 0.05668,0 0.113367,0 0.17005,0 -0.04251,-0.53849 -0.08502,-1.07698 -0.12753,-1.61547 0.127537,-0.19839 0.255073,-0.39678 0.38261,-0.59517 0.36844,-0.56683 0.73688,-1.13366 1.10532,-1.70049 0.439293,-0.63769 0.878587,-1.27537 1.31788,-1.91306 0.113363,-0.48181 0.226727,-0.96361 0.34009,-1.44542 -0.04251,-0.42512 -0.08502,-0.85024 -0.12753,-1.27536 -0.226733,-0.46764 -0.453467,-0.93527 -0.6802,-1.40291 -0.255073,-0.17005 -0.510147,-0.3401 -0.76522,-0.51015 -0.623513,-0.2409 -1.247027,-0.4818 -1.87054,-0.7227 -0.595173,-0.0283 -1.190347,-0.0567 -1.78552,-0.085 -0.680196,0.2409 -1.360394,0.48181 -2.04059,0.72271 -0.524316,0.39678 -1.048634,0.79356 -1.57295,1.19034 -0.241197,0.57111 -0.482394,1.14221 -0.723591,1.71332 z"
           sodipodi:nodetypes="cccccccccccccccccccccccccc"
           transform="matrix(0.76307342,0,0,0.76307342,-34.523651,-94.368141)" /><path
           style="fill:#000000;stroke-width:0.608339"
           id="path2"
           sodipodi:type="arc"
           sodipodi:cx="25.782314"
           sodipodi:cy="39.12244"
           sodipodi:rx="1.33004"
           sodipodi:ry="1.33004"
           sodipodi:start="0.56601143"
           sodipodi:end="0.56277817"
           sodipodi:open="true"
           sodipodi:arc-type="arc"
           d="m 26.90493,39.835701 a 1.33004,1.33004 0 0 1 -1.834968,0.409931 1.33004,1.33004 0 0 1 -0.411415,-1.834636 1.33004,1.33004 0 0 1 1.834303,-0.412898 1.33004,1.33004 0 0 1 0.41438,1.833969" /><path
           style="fill:url(#linearGradient6);stroke:none;stroke-width:0.7;stroke-opacity:1"
           d="m 24.749488,38.281505 1.77936,0.916255 0.524021,0.270543 c 0,0 -0.04381,-0.16241 -0.02048,-0.225452 0.04301,-0.116244 0.03283,-0.243805 0.0297,-0.367711 -0.003,-0.120414 -0.119798,-0.227652 -0.174302,-0.335072 -0.04533,-0.08936 -0.1146,-0.217677 -0.185674,-0.288306 -0.101606,-0.10097 0.11337,-0.178973 -0.159709,-0.239578 -0.08106,-0.01799 -0.230519,-0.113362 -0.311238,-0.132842 -0.0731,-0.01765 -0.233772,-0.06965 -0.307738,-0.07877 -0.09363,-0.01154 -0.184659,-0.01836 -0.277689,-0.0027 -0.13127,0.0221 -0.285281,0.04497 -0.402637,0.107798 -0.153584,0.08223 -0.493611,0.375869 -0.493611,0.375869 z"
           id="path4"
           sodipodi:nodetypes="cccssssssssscc" /><path
           style="fill:url(#linearGradient8);stroke:none;stroke-width:0.7;stroke-opacity:1"
           d="m 107.35334,181.49322 c -0.21773,0.0122 -0.65319,0.0366 -0.81581,-0.20466 -0.16263,-0.24122 -0.0524,-0.74803 0.12295,-1.18179 0.17535,-0.43377 0.41584,-0.7945 0.69514,-1.31248 0.2793,-0.51797 0.59741,-1.19319 0.89301,-1.71926 0.2956,-0.52606 0.56867,-0.90296 0.67014,-1.31186 0.10147,-0.40889 0.0313,-0.84979 -0.20915,-1.27064 -0.24049,-0.42085 -0.65132,-0.82166 -1.1874,-1.09722 -0.53609,-0.27555 -1.19742,-0.42586 -1.83872,-0.41083 -0.64129,0.015 -1.26255,0.1954 -1.75595,0.48707 -0.49341,0.29166 -0.85895,0.69463 -1.18069,0.83358 -0.32173,0.13895 -0.59963,0.0139 -0.45868,-0.28155 0.14095,-0.29544 0.70075,-0.76124 1.26145,-1.10887 0.5607,-0.34763 1.12228,-0.57707 1.5777,-0.71511 0.45543,-0.13803 0.80465,-0.18464 1.22302,-0.17788 0.41838,0.007 0.90587,0.0669 1.34276,0.21368 0.4369,0.14681 0.82318,0.38031 1.08218,0.54012 0.259,0.15982 0.39075,0.24597 0.58739,0.48145 0.19664,0.23548 0.45817,0.62028 0.5739,0.94797 0.11574,0.32768 0.0857,0.59822 0.0306,0.94893 -0.0551,0.35072 -0.13528,0.78158 -0.36675,1.26683 -0.23148,0.48524 -0.61427,1.02486 -0.98176,1.62258 -0.36749,0.59773 -0.71966,1.25354 -0.89171,1.83619 -0.17204,0.58265 -0.16394,1.09211 -0.15989,1.34685 0.004,0.25474 0.004,0.25472 -0.21369,0.2669 z"
           id="path6"
           inkscape:path-effect="#path-effect6"
           inkscape:original-d="m 107.57108,181.48104 c -0.43547,0.0244 -0.87093,0.0487 -1.3064,0.0731 0.11022,-0.5068 0.22045,-1.01361 0.33067,-1.52041 0.24048,-0.36073 0.48097,-0.72146 0.72145,-1.08219 0.31812,-0.67522 0.63624,-1.35044 0.95435,-2.02566 0.27308,-0.37691 0.54616,-0.75381 0.81923,-1.13072 -0.0701,-0.44089 -0.14028,-0.88178 -0.21042,-1.32267 -0.41083,-0.40081 -0.82166,-0.80162 -1.23249,-1.20243 -0.66134,-0.1503 -1.32267,-0.30061 -1.98401,-0.45091 -0.62125,0.18036 -1.24251,0.36073 -1.86376,0.54109 -0.36556,0.40297 -0.7311,0.80594 -1.09666,1.20891 -0.27791,-0.12507 -0.55581,-0.25013 -0.83371,-0.3752 0.5598,-0.46581 1.1196,-0.93161 1.6794,-1.39741 0.5616,-0.22945 1.12318,-0.4589 1.68478,-0.68836 0.34925,-0.0466 0.69847,-0.0932 1.04772,-0.13983 0.4875,0.0601 0.97499,0.12024 1.46249,0.18036 0.38629,0.2335 0.77257,0.467 1.15886,0.7005 0.13173,0.0861 0.26346,0.17228 0.39519,0.25842 0.26155,0.38482 0.52308,0.76962 0.78462,1.15444 -0.0301,0.27055 -0.0601,0.54109 -0.0902,0.81164 -0.0802,0.43087 -0.16033,0.86174 -0.24049,1.29261 -0.38279,0.53962 -0.76558,1.07924 -1.14837,1.61886 -0.35218,0.65583 -0.70436,1.31164 -1.05655,1.96747 0.008,0.50947 0.0162,1.01893 0.0243,1.52841 z"
           transform="matrix(0.91213126,0,0,0.91213126,-71.318771,-128.80395)"
           sodipodi:nodetypes="cccccccccccccccccccccccc" /><path
           style="fill:url(#radialGradient10);fill-opacity:1;stroke:none;stroke-width:0.7;stroke-opacity:1"
           d="m 33.333028,59.19562 4.797633,-1.679858 5.531175,-5.771664 6.132386,-5.531178 3.36681,-4.80971 -0.12025,-2.16437 -0.8417,-1.32267 1.32267,-2.04414 4.201213,-4.450235 -11.415786,7.21583"
           id="path9"
           sodipodi:nodetypes="cccccccccc" /><path
           style="fill:url(#radialGradient34);stroke:none;stroke-width:0.7;stroke-opacity:1"
           d="m 33.9085,58.919019 0.416576,-1.457498 3.742124,-5.792288 5.742475,-9.032808 1.874083,-2.84457 0.249031,-0.833147 11.763179,-7.646991 0.121489,-0.283002 -12.846611,7.449016 -11.783806,19.96032 z"
           id="path33"
           sodipodi:nodetypes="ccccccccccc" /><path
           style="fill:url(#radialGradient36);stroke:none;stroke-width:0.7;stroke-opacity:1"
           d="m 43.699234,33.527137 0.790641,0.501603 1.6834,-0.12024 11.561454,-4.342084 -0.146919,0.362501 -13.621415,7.82006 0.403243,-1.916594 -0.14088,-1.387057 z"
           id="path34"
           sodipodi:nodetypes="ccccccccc" /><path
           style="fill:url(#radialGradient38);stroke:none;stroke-width:0.7;stroke-opacity:1"
           d="m 42.862807,31.545 c 0.433691,1.036752 1.276588,2.495305 1.261818,2.410903 l 1.016018,-0.01458 1.44292,0.12024 4.80972,-1.92388 5.663496,-2.278572 c 0,0 -0.853786,-0.006 -1.334756,-0.006 -0.48097,0 -12.859216,1.691942 -12.859216,1.691942 z"
           id="path36"
           sodipodi:nodetypes="ccccccscc" /><path
           style="fill:url(#radialGradient40);stroke:none;stroke-width:0.7;stroke-opacity:1"
           d="m 2.8908351,29.758602 2.7207871,2.720784 0.680196,1.61546 0.085024,1.53045 -0.085025,1.572958 0.4251229,1.998072 v 1.53044 l 0.680196,2.89084 0.595173,1.10532 5.5265979,7.397135 0.385637,-1.530439 c 0,0 -1.999904,-2.403776 -2.876248,-3.695548 C 10.298873,45.81887 9.6025944,44.854294 9.0551212,43.532576 8.7786058,42.865008 8.3188595,41.602233 8.1623627,40.896814 7.9033144,39.729137 7.4548446,38.598325 7.3121172,37.410806 c -0.064258,-0.534639 -0.060375,-1.080369 0,-1.61546 0.1140856,-1.011123 0.765222,-2.805818 0.765222,-2.805818 z"
           id="path38"
           sodipodi:nodetypes="cccccccccccasssscc" /><path
           style="fill:url(#radialGradient42);stroke:none;stroke-width:0.695894;stroke-opacity:1"
           d="m 6.5990927,58.776888 1.2121767,0.461791 12.8481136,1.909206 1.363762,-1.487579 0.274547,-0.358739 -6.634116,-0.143577 -4.439956,-0.244885 z"
           id="path40"
           sodipodi:nodetypes="cccccccc" /><path
           style="fill:url(#radialGradient42-4);stroke:none;stroke-width:0.695894;stroke-opacity:1"
           d="m 29.208616,75.967269 0.604135,-0.252285 1.966809,-1.323585 -0.982985,-1.704002 -0.632437,-0.100801 -0.290924,0.911948 -0.359702,0.53435 -0.484659,0.330189 0.151351,0.62102 z"
           id="path40-4"
           sodipodi:nodetypes="cccccccccc" /><path
           style="fill:url(#linearGradient44);stroke:none;stroke-width:0.7;stroke-opacity:1"
           d="M 18.960482,22.106391 32.904514,19.640678 45.233077,24.48708 33.074562,18.620383 18.280285,22.361465 Z"
           id="path42"
           sodipodi:nodetypes="cccccc" /></g></g></g></svg>
